<?xml version="1.0" standalone="no"?>
<!DOCTYPE svg PUBLIC "-//W3C//DTD SVG 20010904//EN"
 "http://www.w3.org/TR/2001/REC-SVG-20010904/DTD/svg10.dtd">
<svg version="1.0" xmlns="http://www.w3.org/2000/svg"
 width="740.000000pt" height="740.000000pt" viewBox="0 0 740.000000 740.000000"
 preserveAspectRatio="xMidYMid meet">
<metadata>
Created by potrace 1.14, written by Peter Selinger 2001-2017
</metadata>
<g transform="translate(0.000000,740.000000) scale(0.100000,-0.100000)"
fill="#000000" stroke="none">
<path d="M3540 7393 c-17 -7 -59 -53 -61 -68 -1 -5 -3 -41 -5 -80 -1 -38 -3
-78 -3 -87 -1 -10 -7 -18 -14 -18 -8 0 -21 -8 -30 -18 -14 -15 -16 -46 -16
-202 0 -102 3 -195 6 -208 3 -13 16 -25 30 -28 l25 -7 -6 -166 c-4 -91 -9
-184 -11 -206 -2 -22 -6 -74 -9 -115 -9 -113 -15 -167 -26 -255 -6 -44 -13
-98 -16 -120 -3 -22 -8 -53 -10 -70 -3 -16 -7 -46 -9 -65 -2 -19 -6 -46 -10
-60 -3 -14 -7 -42 -10 -62 -3 -20 -9 -58 -15 -83 -6 -25 -13 -62 -16 -83 -3
-20 -8 -46 -11 -57 -3 -11 -8 -29 -9 -40 -2 -11 -15 -69 -29 -130 -14 -60 -28
-119 -30 -130 -28 -124 -148 -526 -212 -709 l-38 -109 -103 -23 c-325 -73
-617 -197 -902 -383 -99 -65 -78 -49 -210 -153 -110 -87 -306 -276 -381 -367
-24 -29 -49 -59 -54 -65 -6 -6 -35 -45 -65 -86 -30 -41 -58 -76 -62 -78 -5 -2
-8 -8 -8 -14 0 -5 -15 -30 -32 -56 -18 -26 -44 -67 -57 -92 -13 -25 -27 -47
-30 -50 -25 -21 -202 -424 -215 -489 -1 -9 -11 -43 -21 -76 -11 -33 -19 -62
-20 -65 -1 -3 -4 -18 -8 -35 -4 -16 -9 -40 -12 -53 -2 -13 -6 -31 -9 -40 -3
-9 -8 -32 -11 -49 -3 -18 -7 -46 -10 -63 -12 -72 -14 -88 -19 -135 -17 -157
-21 -265 -8 -276 9 -10 79 -15 87 -7 4 3 18 4 32 2 77 -14 79 -13 81 69 5 121
13 215 28 297 2 14 7 41 10 60 29 183 110 422 214 635 64 129 179 323 227 380
4 6 21 28 38 50 100 135 337 375 437 443 13 9 25 19 28 23 6 8 179 129 185
129 2 0 27 16 56 35 30 19 59 35 66 35 7 0 13 4 13 8 0 7 204 110 230 117 3 1
19 7 35 14 46 20 196 72 216 76 10 2 27 9 38 15 12 6 21 9 21 6 0 -2 21 2 47
10 25 8 48 12 50 10 4 -4 -22 -75 -52 -141 -8 -16 -37 -84 -65 -150 -56 -129
-295 -618 -331 -675 -12 -19 -37 -63 -55 -96 -18 -34 -70 -124 -116 -200 -46
-77 -85 -143 -87 -149 -2 -5 -7 -12 -10 -15 -8 -6 -111 -170 -111 -176 0 -2
-7 -12 -15 -21 -8 -10 -62 -87 -120 -171 -58 -85 -110 -159 -115 -165 -6 -7
-49 -64 -96 -127 -72 -95 -203 -260 -224 -280 -3 -3 -15 -17 -28 -31 l-22 -26
430 0 c429 0 430 0 431 21 3 74 9 146 15 176 4 19 8 42 9 50 5 38 18 86 27 98
6 6 8 12 4 12 -16 0 51 156 139 321 5 11 13 19 17 19 5 0 8 7 8 15 0 8 4 15 8
15 5 0 13 10 19 23 28 60 234 252 348 324 44 28 195 103 195 97 0 -4 6 -2 13
4 14 12 157 58 207 66 96 17 145 21 260 20 113 0 178 -5 235 -18 11 -2 43 -9
70 -16 57 -13 156 -48 230 -81 60 -27 179 -98 183 -110 2 -5 8 -9 14 -9 22 0
183 -149 248 -230 122 -151 213 -343 256 -540 9 -39 15 -91 20 -160 3 -41 7
-80 9 -86 3 -11 845 -16 845 -5 0 5 -37 51 -73 91 -41 46 -216 271 -291 375
-47 66 -90 125 -95 130 -29 37 -231 346 -231 355 0 5 -4 10 -10 10 -5 0 -10 4
-10 10 0 5 -20 40 -44 77 -175 272 -453 809 -606 1170 -28 65 -54 127 -59 138
-5 11 -14 35 -20 53 -13 41 -12 41 149 2 235 -57 547 -180 663 -262 15 -11 27
-17 27 -14 0 5 95 -55 117 -74 7 -5 17 -10 23 -10 5 0 10 -3 10 -7 1 -5 25
-24 55 -43 30 -19 55 -38 55 -42 0 -5 5 -8 11 -8 6 0 16 -6 23 -12 7 -7 42
-38 77 -68 96 -82 257 -246 324 -330 33 -41 62 -77 66 -80 18 -17 203 -305
204 -320 1 -3 20 -43 42 -90 47 -97 76 -161 79 -175 2 -5 15 -41 29 -80 15
-38 28 -77 30 -85 2 -8 11 -42 20 -75 16 -59 39 -162 49 -220 3 -16 8 -43 11
-60 9 -43 14 -94 20 -220 4 -60 8 -116 11 -123 3 -9 19 -13 52 -11 26 1 52 0
58 -2 5 -3 15 -4 22 -3 6 1 26 2 42 3 l31 1 -6 118 c-3 64 -7 133 -9 152 -8
77 -18 155 -21 160 -2 3 -6 24 -9 46 -7 47 -9 54 -35 159 -44 178 -138 427
-219 575 -19 36 -45 83 -57 105 -33 62 -97 160 -107 163 -4 2 -8 8 -8 13 0 11
-64 99 -130 179 -25 30 -54 65 -65 79 -63 77 -237 241 -380 360 -46 37 -196
141 -205 141 -6 0 -10 5 -10 10 0 6 -5 10 -11 10 -6 0 -23 8 -37 19 -47 32
-311 171 -326 171 -2 0 -21 8 -42 17 -22 9 -41 17 -44 18 -3 1 -18 7 -35 14
-16 7 -34 14 -40 15 -5 2 -17 6 -25 9 -24 10 -104 37 -120 42 -8 2 -33 8 -55
14 -92 23 -171 42 -190 46 -11 2 -20 4 -20 5 0 2 -18 5 -100 15 -99 12 -99 12
-130 115 -1 3 -5 12 -8 20 -14 33 -87 266 -87 278 0 7 -4 20 -9 30 -9 16 -38
115 -62 207 -6 22 -14 54 -19 70 -15 52 -50 195 -60 243 -5 26 -17 81 -26 122
-8 41 -18 86 -20 100 -2 14 -7 39 -11 55 -4 17 -7 32 -8 35 -1 3 -4 28 -9 55
-4 28 -10 66 -13 85 -3 19 -6 40 -7 45 -2 6 -6 33 -10 60 -4 28 -10 66 -13 85
-3 19 -7 51 -9 70 -1 19 -5 53 -8 75 -12 88 -16 123 -22 200 -10 125 -13 171
-19 315 -4 74 -7 137 -7 140 -2 35 4 60 16 60 37 0 43 34 42 238 l-1 197 -31
20 c-29 19 -30 21 -29 95 1 48 -4 87 -14 107 -22 48 -91 75 -141 56z m100
-2228 c17 -88 40 -196 51 -240 11 -44 22 -87 24 -95 1 -8 15 -60 30 -115 15
-55 29 -104 30 -110 1 -5 4 -17 7 -25 3 -8 16 -49 28 -90 12 -41 29 -94 37
-118 9 -23 13 -45 11 -48 -5 -4 -136 -6 -208 -3 -8 0 -80 0 -160 -1 -196 -2
-183 -3 -177 18 5 16 33 110 42 142 2 8 16 53 31 100 23 76 47 162 59 213 2
10 7 27 10 37 7 22 6 17 49 215 19 88 37 177 40 199 4 21 8 41 11 45 2 4 7 30
10 57 3 27 8 60 12 74 6 28 10 14 63 -255z m325 -1266 c33 -75 69 -155 79
-180 10 -24 43 -95 72 -158 30 -62 54 -115 54 -117 0 -1 32 -68 70 -148 39
-79 70 -146 70 -149 0 -2 -326 -4 -725 -4 -399 0 -725 2 -725 5 0 4 20 48 108
232 77 164 107 228 152 330 23 52 48 109 56 125 8 17 29 66 48 110 25 57 41
81 56 85 12 3 157 5 323 4 l302 0 60 -135z"/>
<path d="M1018 784 c-3 -5 -25 -67 -48 -139 -23 -71 -46 -135 -50 -140 -6 -7
-67 -10 -159 -10 -120 1 -148 -2 -139 -12 5 -7 55 -45 110 -84 55 -40 106 -78
113 -85 11 -11 7 -32 -22 -121 -19 -60 -41 -127 -48 -150 l-13 -43 31 22 c18
12 37 27 44 33 22 19 38 30 103 74 36 25 68 49 72 55 4 6 13 4 25 -5 104 -82
228 -170 230 -162 2 4 -17 71 -42 148 -24 77 -41 142 -37 146 4 4 58 43 120
87 62 45 111 85 110 89 -2 4 -67 8 -145 8 -78 0 -145 4 -150 8 -4 5 -29 72
-54 150 -25 77 -48 137 -51 131z"/>
<path d="M2352 769 c-9 -21 -21 -62 -37 -119 -21 -76 -49 -149 -58 -153 -7 -2
-72 -3 -144 -3 -85 1 -133 -2 -133 -9 1 -5 24 -27 53 -47 99 -72 177 -135 172
-140 -3 -3 -8 -15 -10 -27 -5 -29 -63 -220 -76 -249 l-9 -24 27 20 c16 11 73
54 127 96 l100 75 39 -32 c37 -29 95 -74 173 -134 l31 -23 -23 72 c-74 239
-73 232 -55 246 9 7 23 18 31 25 9 6 42 32 75 56 33 25 62 48 65 51 3 4 16 13
29 20 39 20 10 26 -128 24 -71 0 -134 2 -140 5 -5 3 -26 60 -46 126 -21 66
-41 131 -45 145 l-7 25 -11 -26z"/>
<path d="M5036 780 c-16 -42 -38 -108 -42 -130 -3 -13 -9 -29 -14 -35 -4 -5
-8 -14 -9 -20 0 -27 -25 -95 -35 -96 -6 -1 -67 -3 -136 -4 -69 -2 -131 -3
-139 -4 -16 -1 -3 -13 76 -71 27 -19 50 -37 53 -40 3 -4 26 -21 52 -39 41 -30
45 -36 38 -59 -32 -103 -41 -133 -42 -139 -1 -5 -12 -36 -24 -70 -13 -35 -20
-63 -17 -63 4 0 57 38 119 85 63 47 118 85 124 85 6 0 64 -40 129 -89 l119
-90 -13 42 c-7 23 -18 54 -24 70 -6 15 -9 27 -7 27 2 0 -9 36 -24 80 l-27 80
31 28 c18 15 44 36 60 47 15 11 40 30 54 43 15 12 42 32 60 43 17 11 32 24 32
27 0 4 -67 7 -148 7 l-149 -1 -23 76 c-13 41 -24 77 -24 80 -1 4 -8 27 -36
120 -6 18 -9 21 -14 10z"/>
<path d="M6350 712 c-13 -43 -25 -79 -25 -82 -2 -10 -17 -56 -31 -96 l-15 -40
-155 0 c-85 1 -154 -2 -154 -6 0 -4 10 -13 23 -19 12 -7 34 -21 48 -33 14 -12
36 -28 49 -36 70 -47 125 -93 123 -103 -3 -24 -13 -55 -51 -170 -22 -64 -37
-117 -33 -117 4 0 39 24 78 52 39 29 81 60 93 68 13 8 35 25 50 37 l28 23 25
-20 c14 -11 30 -20 35 -20 6 0 12 -3 14 -7 4 -10 154 -122 172 -129 10 -4 -2
44 -35 143 -49 145 -49 148 -30 163 11 8 67 49 125 90 58 41 105 77 106 80 0
3 -71 5 -157 5 l-157 0 -14 50 c-8 28 -18 59 -23 70 -4 11 -18 53 -30 93 -12
40 -25 74 -28 76 -3 2 -17 -30 -31 -72z"/>
<path d="M3680 746 c-6 -18 -12 -42 -15 -52 -2 -10 -18 -60 -35 -109 l-31 -91
-154 1 c-85 0 -155 -2 -155 -5 1 -3 56 -45 124 -95 l123 -90 -24 -75 c-14 -41
-26 -82 -28 -90 -2 -8 -13 -41 -24 -73 -14 -41 -17 -58 -8 -54 7 3 66 44 131
91 66 48 122 83 125 79 3 -4 35 -28 71 -53 36 -24 70 -49 77 -55 32 -26 88
-65 96 -65 4 0 -38 141 -53 175 -21 50 -39 119 -33 125 42 35 93 70 101 70 6
0 12 4 14 8 2 5 32 30 68 55 35 26 60 48 55 48 -6 1 -73 3 -150 4 -77 1 -145
3 -151 4 -5 0 -16 25 -23 54 -8 28 -17 57 -21 62 -5 6 -9 13 -9 18 -1 18 -25
93 -33 102 -4 5 -8 17 -8 27 0 30 -18 20 -30 -16z"/>
</g>
</svg>
