<svg width="33" height="32" viewBox="0 0 33 32" fill="none" xmlns="http://www.w3.org/2000/svg">
<path d="M8.92012 11.2C10.0277 11.2 11.1104 10.8716 12.0313 10.2562C12.9522 9.6409 13.67 8.7663 14.0938 7.74303C14.5177 6.71976 14.6286 5.59379 14.4125 4.5075C14.1964 3.4212 13.6631 2.42338 12.8799 1.6402C12.0967 0.857031 11.0989 0.323682 10.0126 0.107605C8.92633 -0.108472 7.80036 0.00242639 6.77709 0.426277C5.75382 0.850128 4.87922 1.56789 4.26389 2.48881C3.64855 3.40972 3.32012 4.49243 3.32012 5.6C3.32012 7.08521 3.91012 8.5096 4.96032 9.5598C6.01052 10.61 7.43491 11.2 8.92012 11.2ZM8.92012 1.6C9.71124 1.6 10.4846 1.8346 11.1424 2.27412C11.8002 2.71365 12.3129 3.33836 12.6156 4.06927C12.9184 4.80017 12.9976 5.60444 12.8433 6.38036C12.6889 7.15629 12.308 7.86902 11.7485 8.42843C11.1891 8.98784 10.4764 9.3688 9.70048 9.52314C8.92455 9.67748 8.12029 9.59827 7.38938 9.29552C6.65848 8.99277 6.03376 8.48008 5.59424 7.82228C5.15471 7.16449 4.92012 6.39113 4.92012 5.6C4.92012 4.53914 5.34154 3.52172 6.09169 2.77158C6.84184 2.02143 7.85925 1.6 8.92012 1.6ZM13.2601 24C13.1102 24.5228 13.0098 25.0584 12.9601 25.6H0.120117V20C0.122763 18.0913 0.882182 16.2614 2.23187 14.9118C3.58156 13.5621 5.41137 12.8026 7.32012 12.8H10.5201C12.1919 12.8024 13.8107 13.3865 15.0989 14.4521C16.3871 15.5177 17.2643 16.9983 17.5801 18.64C17.0471 18.9209 16.5444 19.256 16.0801 19.64C15.9913 18.2241 15.3674 16.8949 14.335 15.9219C13.3026 14.9489 11.9388 14.4048 10.5201 14.4H7.32012C5.8349 14.4 4.41052 14.99 3.36032 16.0402C2.31012 17.0904 1.72012 18.5148 1.72012 20V24H13.2601ZM23.3201 17.6C24.4277 17.6 25.5104 17.2716 26.4313 16.6562C27.3522 16.0409 28.07 15.1663 28.4938 14.143C28.9177 13.1198 29.0286 11.9938 28.8125 10.9075C28.5964 9.8212 28.0631 8.82338 27.2799 8.04021C26.4967 7.25703 25.4989 6.72368 24.4126 6.5076C23.3263 6.29153 22.2004 6.40243 21.1771 6.82628C20.1538 7.25013 19.2792 7.96789 18.6639 8.88881C18.0486 9.80972 17.7201 10.8924 17.7201 12C17.7201 12.7354 17.865 13.4636 18.1464 14.143C18.4278 14.8225 18.8403 15.4398 19.3603 15.9598C20.4105 17.01 21.8349 17.6 23.3201 17.6ZM23.3201 8C24.1112 8 24.8846 8.2346 25.5424 8.67412C26.2002 9.11365 26.7129 9.73836 27.0156 10.4693C27.3184 11.2002 27.3976 12.0044 27.2433 12.7804C27.0889 13.5563 26.708 14.269 26.1485 14.8284C25.5891 15.3878 24.8764 15.7688 24.1005 15.9231C23.3246 16.0775 22.5203 15.9983 21.7894 15.6955C21.0585 15.3928 20.4338 14.8801 19.9942 14.2223C19.5547 13.5645 19.3201 12.7911 19.3201 12C19.3201 11.4747 19.4236 10.9546 19.6246 10.4693C19.8256 9.98397 20.1203 9.54301 20.4917 9.17158C21.2418 8.42143 22.2593 8 23.3201 8ZM32.1201 26.4C32.1175 24.4913 31.3581 22.6614 30.0084 21.3118C28.6587 19.9621 26.8289 19.2026 24.9201 19.2H21.7201C19.8114 19.2026 17.9816 19.9621 16.6319 21.3118C15.2822 22.6614 14.5228 24.4913 14.5201 26.4V32H32.1201V26.4ZM30.5201 30.4H16.1201V26.4C16.1201 24.9148 16.7101 23.4904 17.7603 22.4402C18.8105 21.39 20.2349 20.8 21.7201 20.8H24.9201C26.4053 20.8 27.8297 21.39 28.8799 22.4402C29.9301 23.4904 30.5201 24.9148 30.5201 26.4V30.4Z" fill="black"/>
</svg>
