<svg width="16" height="16" viewBox="0 0 16 16" fill="none" xmlns="http://www.w3.org/2000/svg">
<g clip-path="url(#clip0_14_86)">
<path d="M8 2.29999C7.40666 2.29999 6.82664 2.47593 6.33329 2.80558C5.83994 3.13522 5.45543 3.60376 5.22836 4.15194C5.0013 4.70012 4.94189 5.30332 5.05765 5.88526C5.1734 6.4672 5.45912 7.00175 5.87868 7.42131C6.29824 7.84087 6.83279 8.12659 7.41473 8.24234C7.99667 8.3581 8.59987 8.29869 9.14805 8.07163C9.69623 7.84456 10.1648 7.46005 10.4944 6.9667C10.8241 6.47335 11 5.89333 11 5.29999C11 4.50434 10.6839 3.74128 10.1213 3.17867C9.55871 2.61606 8.79565 2.29999 8 2.29999ZM10 5.29999C10 5.69555 9.8827 6.08223 9.66294 6.41113C9.44318 6.74003 9.13082 6.99637 8.76537 7.14775C8.39992 7.29912 7.99778 7.33873 7.60982 7.26156C7.22186 7.18439 6.86549 6.99391 6.58579 6.7142C6.30608 6.4345 6.1156 6.07813 6.03843 5.69017C5.96126 5.30221 6.00087 4.90007 6.15224 4.53462C6.30362 4.16917 6.55996 3.85681 6.88886 3.63705C7.21776 3.41729 7.60444 3.29999 8 3.29999C8.53043 3.29999 9.03914 3.5107 9.41421 3.88577C9.78929 4.26085 10 4.76956 10 5.29999Z" fill="black"/>
<path d="M16 8C15.9987 6.43209 15.5366 4.89914 14.6713 3.59165C13.806 2.28415 12.5755 1.25975 11.1328 0.645745C9.69017 0.0317436 8.09886 -0.144789 6.55668 0.138085C5.0145 0.420958 3.58944 1.15077 2.45859 2.23682C1.32774 3.32287 0.540958 4.71728 0.196011 6.24677C-0.148935 7.77626 -0.0368354 9.3734 0.518381 10.8397C1.0736 12.306 2.04745 13.5769 3.31892 14.4943C4.59039 15.4117 6.10343 15.9353 7.67 16H8C9.79341 16.0004 11.5349 15.3982 12.945 14.29L13 14.25C13.9368 13.5 14.6929 12.5487 15.2122 11.4668C15.7315 10.385 16.0007 9.20008 16 8ZM3.855 13.66C3.90731 12.5946 4.36738 11.5901 5.13992 10.8546C5.91247 10.119 6.9383 9.70878 8.005 9.70878C9.0717 9.70878 10.0975 10.119 10.8701 10.8546C11.6426 11.5901 12.1027 12.5946 12.155 13.66C10.9506 14.5409 9.49715 15.0156 8.005 15.0156C6.51285 15.0156 5.05941 14.5409 3.855 13.66ZM13.055 12.875C12.8404 11.6927 12.2175 10.6233 11.2951 9.8532C10.3726 9.08314 9.20912 8.66132 8.0075 8.66132C6.80587 8.66132 5.64238 9.08314 4.71993 9.8532C3.79749 10.6233 3.17463 11.6927 2.96 12.875C2.03028 11.9077 1.39815 10.6935 1.13887 9.37712C0.879583 8.06073 1.00407 6.69756 1.49752 5.44991C1.99096 4.20226 2.83256 3.1227 3.92212 2.33978C5.01168 1.55685 6.30329 1.10354 7.64316 1.03382C8.98303 0.964101 10.3147 1.28091 11.4796 1.94653C12.6446 2.61214 13.5937 3.59852 14.214 4.78822C14.8342 5.97792 15.0995 7.32081 14.9783 8.65701C14.857 9.9932 14.3543 11.2664 13.53 12.325C13.3824 12.5173 13.2238 12.701 13.055 12.875Z" fill="black"/>
</g>
<defs>
<clipPath id="clip0_14_86">
<rect width="16" height="16" fill="white"/>
</clipPath>
</defs>
</svg>
