<svg width="39" height="32" viewBox="0 0 39 32" fill="none" xmlns="http://www.w3.org/2000/svg">
<path fill-rule="evenodd" clip-rule="evenodd" d="M21.1001 4.46664V3.2C21.1001 2.77565 20.9316 2.36869 20.6315 2.06863C20.3315 1.76857 19.9245 1.6 19.5001 1.6C19.0758 1.6 18.6688 1.76857 18.3688 2.06863C18.0687 2.36869 17.9001 2.77565 17.9001 3.2V4.46664C18.4303 4.42232 18.9641 4.3999 19.5001 4.3999C20.0362 4.3999 20.57 4.42232 21.1001 4.46664ZM17.1376 6.15912C17.1826 6.15702 17.2271 6.15112 17.2707 6.14161C18.0062 6.0477 18.7507 5.9999 19.5001 5.9999C20.2496 5.9999 20.9941 6.0477 21.7296 6.14161C21.7732 6.15112 21.8177 6.15702 21.8627 6.15912C25.6581 6.6732 29.2065 8.41611 31.9452 11.1548C35.2459 14.4555 37.1001 18.9321 37.1001 23.5999C37.0988 24.2686 37.0554 24.9366 36.9701 25.5999H2.03014C1.9449 24.9366 1.90148 24.2686 1.90014 23.5999C1.90014 18.9321 3.75442 14.4555 7.05506 11.1548C9.79378 8.41611 13.3421 6.6732 17.1376 6.15912ZM16.3001 4.66836V3.2C16.3001 2.35131 16.6373 1.53737 17.2374 0.937258C17.8375 0.337142 18.6515 0 19.5001 0C20.3488 0 21.1628 0.337142 21.7629 0.937258C22.363 1.53737 22.7001 2.35131 22.7001 3.2V4.66836C26.6051 5.32842 30.2392 7.18604 33.0766 10.0235C36.6773 13.6242 38.7001 18.5077 38.7001 23.5999C38.6929 24.5779 38.6127 25.5539 38.4601 26.5199C38.4293 26.7098 38.3318 26.8825 38.1852 27.0071C38.0387 27.1317 37.8525 27.2 37.6601 27.1999H21.1001V30.3999H34.7001C34.9123 30.3999 35.1158 30.4842 35.2658 30.6342C35.4159 30.7842 35.5001 30.9877 35.5001 31.1999C35.5001 31.4121 35.4159 31.6156 35.2658 31.7656C35.1158 31.9156 34.9123 31.9999 34.7001 31.9999H20.3179L20.3001 32.0001L20.2824 31.9999H4.30015C4.08797 31.9999 3.88449 31.9156 3.73446 31.7656C3.58443 31.6156 3.50014 31.4121 3.50014 31.1999C3.50014 30.9877 3.58443 30.7842 3.73446 30.6342C3.88449 30.4842 4.08797 30.3999 4.30015 30.3999H19.5001V27.1999H1.30014C1.10777 27.2 0.921628 27.1317 0.775049 27.0071C0.628469 26.8825 0.531019 26.7098 0.500144 26.5199C0.361749 25.5528 0.294901 24.5768 0.300144 23.5999C0.300144 18.5077 2.323 13.6242 5.92369 10.0235C8.76111 7.18604 12.3952 5.32843 16.3001 4.66836ZM6.05014 22.4H5.93014C5.7248 22.3611 5.54321 22.2425 5.42513 22.0701C5.30706 21.8976 5.26211 21.6854 5.30014 21.4799C5.82076 18.0791 7.53608 14.9751 10.1384 12.7246C12.7407 10.4741 16.0598 9.22453 19.5001 9.19995C19.6052 9.19995 19.7092 9.22064 19.8063 9.26085C19.9034 9.30105 19.9915 9.35998 20.0658 9.43427C20.1401 9.50855 20.199 9.59674 20.2392 9.6938C20.2795 9.79086 20.3001 9.89489 20.3001 9.99995C20.3001 10.105 20.2795 10.209 20.2392 10.3061C20.199 10.4032 20.1401 10.4914 20.0658 10.5656C19.9915 10.6399 19.9034 10.6989 19.8063 10.7391C19.7092 10.7793 19.6052 10.8 19.5001 10.8C16.4347 10.8125 13.4747 11.9197 11.1534 13.9219C8.83223 15.9241 7.30255 18.6896 6.84014 21.72C6.81146 21.909 6.71601 22.0815 6.57109 22.2063C6.42617 22.331 6.24136 22.3997 6.05014 22.4Z" fill="#0B3B2C"/>
</svg>
