<svg width="49" height="46" viewBox="0 0 49 46" fill="none" xmlns="http://www.w3.org/2000/svg">
<path d="M48.5 20.57H43.93V18.29H48.5V20.57ZM0.5 20.57H5.07V18.29H0.5V20.57ZM40.83 9.28L44.07 6.05L42.5 4.43L39.22 7.67L40.83 9.28ZM4.93 6.05L8.17 9.28L9.78 7.67L6.55 4.43L4.93 6.05ZM25.64 4.57V0H23.36V4.57H25.64ZM25.64 38.86V43.43H46.21V45.71H2.79V43.43H23.36V38.86H4.71C4.19987 38.8574 3.71153 38.6529 3.35174 38.2912C2.99196 37.9295 2.78999 37.4401 2.79 36.93C2.79529 31.988 4.76085 27.2499 8.25538 23.7554C11.7499 20.2608 16.488 18.2953 21.43 18.29H23.36V16H18.79V13.71H30.21V16H25.64V18.29H27.57C32.512 18.2953 37.2501 20.2608 40.7446 23.7554C44.2392 27.2499 46.2047 31.988 46.21 36.93C46.21 37.4401 46.008 37.9295 45.6483 38.2912C45.2885 38.6529 44.8001 38.8574 44.29 38.86H25.64ZM43.92 36.57C43.8234 32.2963 42.0589 28.23 39.0036 25.2401C35.9484 22.2503 31.8448 20.5741 27.57 20.57H21.43C17.1552 20.5741 13.0516 22.2503 9.99639 25.2401C6.94113 28.23 5.17662 32.2963 5.08 36.57H43.92Z" fill="#B48752"/>
</svg>
