<svg width="36" height="33" viewBox="0 0 36 33" fill="none" xmlns="http://www.w3.org/2000/svg">
<path d="M32.5879 1.79404C28.0043 0.299017 23.1693 -0.269526 18.364 0.121496C13.5493 -0.259178 8.70669 0.309084 4.11094 1.79404C3.12961 2.1832 2.29403 2.86864 1.72053 3.75496C1.14704 4.64127 0.864159 5.68434 0.91128 6.73897C0.91128 6.88441 0.91128 10.5204 2.93288 12.1929C3.57316 12.7758 4.40862 13.0975 5.27445 13.0946V29.791C5.2706 30.08 5.32418 30.3668 5.43209 30.6348C5.54 30.9029 5.70008 31.1468 5.90304 31.3525C6.10601 31.5582 6.34781 31.7215 6.6144 31.8329C6.881 31.9444 7.16708 32.0017 7.45603 32.0017H29.2719C29.8505 32.0017 30.4054 31.7719 30.8145 31.3627C31.2236 30.9536 31.4535 30.3987 31.4535 29.8201V13.0946C32.3104 13.1067 33.1426 12.8069 33.795 12.2511C35.8166 10.5058 35.8166 6.88441 35.8166 6.72442C35.8629 5.66795 35.576 4.62364 34.9967 3.73897C34.4174 2.85431 33.5748 2.17397 32.5879 1.79404ZM11.8192 30.5473H7.45603C7.26317 30.5473 7.0782 30.4707 6.94183 30.3343C6.80545 30.198 6.72884 30.013 6.72884 29.8201V12.2511C6.73811 12.1357 6.71912 12.0197 6.67351 11.9133C6.62789 11.8069 6.55703 11.7131 6.46705 11.6403C6.33931 11.5257 6.17318 11.4634 6.00164 11.4657H5.88529C5.53469 11.5612 5.16713 11.5768 4.80971 11.5113C4.45228 11.4459 4.11409 11.3011 3.82006 11.0876C2.82572 9.85576 2.3093 8.30649 2.36567 6.72442C2.32538 5.97565 2.51757 5.23274 2.91593 4.59745C3.31429 3.96216 3.89932 3.46557 4.59089 3.17571C11.6537 0.891987 19.2566 0.891987 26.3195 3.17571C27.0135 3.46641 27.6002 3.96525 27.9988 4.60345C28.3973 5.24166 28.588 5.98779 28.5447 6.73897C28.601 8.32103 28.0846 9.87031 27.0903 11.1021C26.8074 11.3217 26.4795 11.4759 26.13 11.5539C25.7805 11.6318 25.4181 11.6315 25.0687 11.553C24.966 11.5322 24.8598 11.5359 24.7588 11.5637C24.6577 11.5915 24.5646 11.6426 24.4869 11.713C24.405 11.7799 24.339 11.8642 24.2937 11.9598C24.2485 12.0554 24.225 12.1599 24.2251 12.2656V29.791C24.2251 29.9839 24.1485 30.1689 24.0122 30.3052C23.8758 30.4416 23.6908 30.5182 23.4979 30.5182L11.8192 30.5473ZM32.9078 11.0876C32.6257 11.3083 32.2973 11.4623 31.9471 11.5378C31.597 11.6134 31.2343 11.6086 30.8862 11.5239C30.7827 11.5071 30.6767 11.5129 30.5756 11.541C30.4745 11.569 30.3807 11.6185 30.3006 11.6862C30.2204 11.7539 30.1559 11.8382 30.1114 11.9332C30.0669 12.0282 30.0434 12.1317 30.0427 12.2366V29.791C30.0427 29.9839 29.9661 30.1689 29.8297 30.3052C29.6933 30.4416 29.5084 30.5182 29.3155 30.5182H25.505C25.5873 30.2844 25.6315 30.0389 25.6359 29.791V13.0946C26.494 13.1135 27.3285 12.8129 27.9775 12.2511C29.9991 10.5204 29.9991 6.88441 29.9991 6.73897C30.0306 5.75421 29.7805 4.78089 29.2781 3.93332C28.7758 3.08575 28.042 2.39911 27.163 1.95403C28.8513 2.24933 30.5179 2.65748 32.1516 3.17571C32.8417 3.46612 33.4248 3.96331 33.8207 4.59882C34.2166 5.23434 34.4058 5.97695 34.3622 6.72442C34.4173 8.3063 33.901 9.85513 32.9078 11.0876Z" fill="#0B3B2C"/>
</svg>
