<svg width="39" height="32" viewBox="0 0 39 32" fill="none" xmlns="http://www.w3.org/2000/svg">
<path fill-rule="evenodd" clip-rule="evenodd" d="M34.4861 12.9901H36.0703C36.7005 12.9901 37.3049 12.7398 37.7505 12.2942C38.1962 11.8485 38.4465 11.2441 38.4465 10.6139C38.4465 9.98369 38.1962 9.37929 37.7505 8.93366C37.3049 8.48803 36.7005 8.23767 36.0703 8.23767H31.9515L29.9396 2.91491C29.646 2.18211 29.1479 1.54913 28.5048 1.09133C27.8616 0.63354 27.1004 0.370225 26.3119 0.332739C21.7815 -0.110913 17.2186 -0.110913 12.6882 0.332739C11.8996 0.370225 11.1384 0.63354 10.4953 1.09133C9.85212 1.54913 9.35407 2.18211 9.06044 2.91491L7.04856 8.23767H2.86639C2.55434 8.23767 2.24534 8.29914 1.95705 8.41855C1.66875 8.53797 1.40679 8.713 1.18614 8.93366C0.965488 9.15431 0.790456 9.41626 0.671039 9.70456C0.551622 9.99286 0.490159 10.3019 0.490159 10.6139C0.490159 10.926 0.551622 11.235 0.671039 11.5232C0.790456 11.8115 0.965488 12.0735 1.18614 12.2942C1.40679 12.5148 1.66875 12.6898 1.95705 12.8093C2.24534 12.9287 2.55434 12.9901 2.86639 12.9901H4.45055L1.28224 17.204C0.764661 17.8998 0.486729 18.7447 0.490159 19.6119V29.6238C0.490159 30.254 0.740511 30.8584 1.18614 31.304C1.63177 31.7496 2.23618 32 2.86639 32H4.45055C5.08076 32 5.68517 31.7496 6.1308 31.304C6.57643 30.8584 6.82678 30.254 6.82678 29.6238V27.2475H32.1733V29.6238C32.1733 30.254 32.4236 30.8584 32.8692 31.304C33.3149 31.7496 33.9193 32 34.5495 32H36.1336C36.7639 32 37.3683 31.7496 37.8139 31.304C38.2595 30.8584 38.5099 30.254 38.5099 29.6238V19.6119C38.5087 18.7429 38.2252 17.8978 37.702 17.204L34.4861 12.9901ZM36.0703 9.82183C36.2803 9.82183 36.4818 9.90528 36.6304 10.0538C36.7789 10.2024 36.8624 10.4038 36.8624 10.6139C36.8624 10.824 36.7789 11.0254 36.6304 11.174C36.4818 11.3225 36.2803 11.406 36.0703 11.406H33.4564L32.6643 9.82183H36.0703ZM10.4862 3.48521C10.676 3.03126 10.9915 2.64098 11.3957 2.36032C11.7998 2.07967 12.2757 1.92033 12.7674 1.90105C17.2033 1.47329 21.67 1.47329 26.1059 1.90105C26.5966 1.92408 27.0709 2.08491 27.4743 2.36509C27.8778 2.64528 28.1942 3.03348 28.3871 3.48521L30.5891 9.3149V9.39411L31.3178 11.3268H7.55549L8.2842 9.505V9.40995L10.4862 3.48521ZM2.07431 10.6139C2.07431 10.4038 2.15776 10.2024 2.30631 10.0538C2.45485 9.90528 2.65632 9.82183 2.86639 9.82183H6.33569L5.54361 11.406H2.86639C2.65632 11.406 2.45485 11.3225 2.30631 11.174C2.15776 11.0254 2.07431 10.824 2.07431 10.6139ZM36.9257 29.6238C36.9257 29.8338 36.8423 30.0353 36.6937 30.1838C36.5452 30.3324 36.3437 30.4158 36.1336 30.4158H34.5495C34.3394 30.4158 34.138 30.3324 33.9894 30.1838C33.8409 30.0353 33.7574 29.8338 33.7574 29.6238V26.4555C33.7574 26.2454 33.674 26.0439 33.5254 25.8954C33.3769 25.7468 33.1754 25.6634 32.9653 25.6634H6.0347C5.82463 25.6634 5.62316 25.7468 5.47462 25.8954C5.32608 26.0439 5.24262 26.2454 5.24262 26.4555V29.6238C5.24262 29.8338 5.15917 30.0353 5.01063 30.1838C4.86209 30.3324 4.66062 30.4158 4.45055 30.4158H2.86639C2.65632 30.4158 2.45485 30.3324 2.30631 30.1838C2.15776 30.0353 2.07431 29.8338 2.07431 29.6238V19.6119C2.07424 19.0903 2.24693 18.5834 2.5654 18.1703L6.49411 12.9901H32.5059L36.4346 18.1703C36.7531 18.5834 36.9258 19.0903 36.9257 19.6119V29.6238ZM32.9653 17.7425C32.7552 17.7425 32.5538 17.8259 32.4052 17.9745C32.2567 18.123 32.1732 18.3245 32.1732 18.5345V20.388C32.1691 20.5281 32.1105 20.661 32.01 20.7587C31.9094 20.8563 31.7748 20.9108 31.6346 20.9108H28.2128C28.0028 20.9108 27.8013 20.9942 27.6528 21.1428C27.5042 21.2913 27.4208 21.4928 27.4208 21.7028C27.4208 21.9129 27.5042 22.1144 27.6528 22.2629C27.8013 22.4115 28.0028 22.4949 28.2128 22.4949H31.6346C32.1949 22.4949 32.7324 22.2735 33.1301 21.8788C33.5277 21.4841 33.7532 20.9482 33.7574 20.388V18.5345C33.7574 18.3245 33.6739 18.123 33.5254 17.9745C33.3768 17.8259 33.1754 17.7425 32.9653 17.7425ZM7.36536 20.9108H10.7871C10.9972 20.9108 11.1987 20.9942 11.3472 21.1428C11.4958 21.2913 11.5792 21.4928 11.5792 21.7028C11.5792 21.9129 11.4958 22.1144 11.3472 22.2629C11.1987 22.4115 10.9972 22.4949 10.7871 22.4949H7.36536C6.8051 22.4949 6.26755 22.2735 5.86991 21.8788C5.47227 21.4841 5.24677 20.9482 5.24259 20.388V18.5345C5.24259 18.3245 5.32604 18.123 5.47459 17.9745C5.62313 17.8259 5.8246 17.7425 6.03467 17.7425C6.24474 17.7425 6.44621 17.8259 6.59475 17.9745C6.7433 18.123 6.82675 18.3245 6.82675 18.5345V20.388C6.83087 20.5281 6.88943 20.661 6.99 20.7587C7.09056 20.8563 7.22521 20.9108 7.36536 20.9108Z" fill="#0B3B2C"/>
</svg>
