<svg width="35" height="32" viewBox="0 0 35 32" fill="none" xmlns="http://www.w3.org/2000/svg">
<path fill-rule="evenodd" clip-rule="evenodd" d="M34.7576 5.59836C34.7535 4.34946 34.3319 3.13779 33.5601 2.15597C32.7882 1.17414 31.7103 0.478517 30.4976 0.179672C29.285 -0.119174 28.0073 -0.00408706 26.8676 0.506638C25.7279 1.01736 24.7916 1.89441 24.2076 2.99836C22.1462 2.13539 19.931 1.70015 17.6963 1.71906C15.4616 1.73797 13.2541 2.21063 11.2076 3.10836C10.8163 2.32751 10.2474 1.64922 9.54659 1.1279C8.8458 0.606582 8.03259 0.256731 7.17219 0.106408C6.31179 -0.0439156 5.42814 0.00947067 4.59209 0.262286C3.75605 0.5151 2.99088 0.960309 2.35795 1.56221C1.72502 2.16411 1.24193 2.90594 0.947441 3.72823C0.652948 4.55052 0.555241 5.43038 0.662154 6.29725C0.769068 7.16411 1.07763 7.99386 1.56309 8.71996C2.04855 9.44605 2.6974 10.0483 3.45761 10.4784C2.47935 12.463 1.9696 14.6457 1.96761 16.8584C1.96761 25.2084 9.09761 31.9984 17.8576 31.9984C21.4372 32.05 24.9279 30.8821 27.7558 28.6867C30.5836 26.4913 32.5803 23.3991 33.4176 19.9184C33.4566 19.7925 33.469 19.6599 33.4539 19.529C33.4389 19.3982 33.3969 19.2718 33.3304 19.1581C33.2639 19.0443 33.1745 18.9456 33.0679 18.8683C32.9612 18.7909 32.8397 18.7366 32.7109 18.7088C32.5821 18.6809 32.449 18.6802 32.3199 18.7066C32.1908 18.7329 32.0686 18.7859 31.9611 18.862C31.8536 18.9382 31.7631 19.0358 31.6954 19.1488C31.6276 19.2618 31.5841 19.3877 31.5676 19.5184C30.9785 22.1905 29.5612 24.6087 27.5176 26.4284C26.5676 22.3584 22.5176 19.3184 17.6876 19.3184C12.8576 19.3184 8.96761 22.2284 7.91761 26.1684C6.65344 24.9675 5.64689 23.522 4.95922 21.9197C4.27155 20.3174 3.91715 18.592 3.91761 16.8484C3.91761 9.54836 10.1876 3.59836 17.9176 3.59836C25.1676 3.59836 31.2976 8.94836 31.9176 15.7884C31.9521 16.0282 32.077 16.2459 32.2667 16.3967C32.4564 16.5475 32.6966 16.6202 32.9381 16.5997C33.1796 16.5793 33.4041 16.4673 33.5658 16.2867C33.7274 16.1062 33.8139 15.8706 33.8076 15.6284C33.6498 13.7734 33.1336 11.9667 32.2876 10.3084C33.0594 9.7915 33.6897 9.08982 34.1211 8.2672C34.5525 7.44458 34.7713 6.52714 34.7576 5.59836ZM17.6876 21.2084C21.9576 21.2084 25.5276 24.0784 25.8176 27.7384C23.3992 29.3141 20.5669 30.1354 17.6807 30.0981C14.7944 30.0607 11.9844 29.1662 9.60761 27.5284C9.98761 23.9984 13.4876 21.2084 17.6876 21.2084ZM4.39761 8.81836C3.82143 8.50115 3.34108 8.03492 3.00683 7.46845C2.67258 6.90198 2.49671 6.25609 2.49761 5.59836C2.50049 4.76196 2.78668 3.9512 3.3095 3.29833C3.83232 2.64546 4.56092 2.18899 5.37648 2.00337C6.19204 1.81775 7.04642 1.91394 7.80029 2.27624C8.55416 2.63855 9.16304 3.24559 9.52761 3.99836C7.47441 5.19548 5.72021 6.84367 4.39761 8.81836ZM25.9176 3.81836C26.2303 3.23102 26.6972 2.74004 27.2681 2.39822C27.839 2.05639 28.4922 1.87667 29.1576 1.87836C29.9576 1.87181 30.7382 2.12475 31.3824 2.59926C32.0265 3.07377 32.4995 3.74428 32.7304 4.51027C32.9613 5.27627 32.9378 6.09648 32.6632 6.84794C32.3887 7.59941 31.8779 8.24164 31.2076 8.67836C29.8375 6.6792 28.0279 5.02017 25.9176 3.82836V3.81836ZM12.0578 14.2684C11.8239 14.2925 11.6073 14.4024 11.4498 14.577C11.2923 14.7515 11.2051 14.9783 11.2051 15.2134C11.2051 15.4485 11.2923 15.6752 11.4498 15.8498C11.6073 16.0243 11.8239 16.1343 12.0578 16.1584C12.6278 16.1584 13.185 15.9892 13.6588 15.6723C14.1327 15.3554 14.5018 14.905 14.7195 14.3782C14.9372 13.8513 14.9936 13.2718 14.8817 12.7128C14.7697 12.1539 14.4944 11.6407 14.0907 11.2384C13.6869 10.836 13.1728 10.5625 12.6135 10.4525C12.0541 10.3425 11.4748 10.401 10.9487 10.6205C10.4226 10.84 9.9735 11.2107 9.65825 11.6856C9.343 12.1605 9.17577 12.7183 9.17775 13.2884C9.24351 13.4884 9.37076 13.6626 9.54134 13.7861C9.71193 13.9096 9.91715 13.9761 10.1278 13.9761C10.3384 13.9761 10.5436 13.9096 10.7142 13.7861C10.8847 13.6626 11.012 13.4884 11.0778 13.2884C11.0778 13.0906 11.1364 12.8972 11.2463 12.7328C11.3562 12.5683 11.5123 12.4402 11.6951 12.3645C11.8778 12.2888 12.0789 12.269 12.2728 12.3076C12.4668 12.3462 12.645 12.4414 12.7849 12.5813C12.9247 12.7211 13.02 12.8993 13.0585 13.0933C13.0971 13.2873 13.0773 13.4883 13.0016 13.671C12.9259 13.8538 12.7978 14.01 12.6333 14.1198C12.4689 14.2297 12.2755 14.2884 12.0778 14.2884L12.0578 14.2684ZM22.9154 14.3103C23.0418 14.269 23.1755 14.2547 23.3078 14.2684L23.3178 14.2884C23.5155 14.2884 23.7089 14.2297 23.8733 14.1198C24.0378 14.01 24.1659 13.8538 24.2416 13.671C24.3173 13.4883 24.3371 13.2873 24.2985 13.0933C24.26 12.8993 24.1647 12.7211 24.0249 12.5813C23.885 12.4414 23.7068 12.3462 23.5128 12.3076C23.3189 12.269 23.1178 12.2888 22.9351 12.3645C22.7523 12.4402 22.5962 12.5683 22.4863 12.7328C22.3764 12.8972 22.3178 13.0906 22.3178 13.2884C22.2937 13.5222 22.1837 13.7389 22.0092 13.8963C21.8346 14.0538 21.6079 14.141 21.3728 14.141C21.1376 14.141 20.9109 14.0538 20.7363 13.8963C20.5618 13.7389 20.4518 13.5222 20.4278 13.2884C20.4258 12.7183 20.593 12.1605 20.9083 11.6856C21.2235 11.2107 21.6726 10.84 22.1987 10.6205C22.7248 10.401 23.3041 10.3425 23.8635 10.4525C24.4228 10.5625 24.9369 10.836 25.3407 11.2384C25.7444 11.6407 26.0197 12.1539 26.1317 12.7128C26.2436 13.2718 26.1872 13.8513 25.9695 14.3782C25.7518 14.905 25.3827 15.3554 24.9088 15.6723C24.435 15.9892 23.8778 16.1584 23.3078 16.1584C23.1755 16.172 23.0418 16.1577 22.9154 16.1164C22.789 16.0751 22.6727 16.0078 22.574 15.9187C22.4753 15.8296 22.3964 15.7208 22.3423 15.5993C22.2883 15.4778 22.2604 15.3463 22.2604 15.2134C22.2604 15.0804 22.2883 14.9489 22.3423 14.8274C22.3964 14.7059 22.4753 14.5971 22.574 14.508C22.6727 14.419 22.789 14.3516 22.9154 14.3103ZM20.4076 24.8784C20.3955 24.6303 20.2915 24.3957 20.1159 24.2201C19.9403 24.0445 19.7056 23.9405 19.4576 23.9284H15.9076C15.6737 23.9524 15.4571 24.0624 15.2996 24.237C15.1421 24.4115 15.0549 24.6383 15.0549 24.8734C15.0549 25.1085 15.1421 25.3352 15.2996 25.5098C15.4571 25.6843 15.6737 25.7943 15.9076 25.8184H19.4576C19.704 25.8065 19.9373 25.7039 20.1127 25.5304C20.288 25.3568 20.3931 25.1246 20.4076 24.8784ZM19.0495 26.6433C19.2231 26.8186 19.3256 27.052 19.3375 27.2984C19.3256 27.5448 19.2231 27.7781 19.0495 27.9535C18.876 28.1288 18.6438 28.2339 18.3975 28.2484H16.9775C16.7775 28.1826 16.6033 28.0554 16.4798 27.8848C16.3563 27.7142 16.2898 27.509 16.2898 27.2984C16.2898 27.0878 16.3563 26.8826 16.4798 26.712C16.6033 26.5414 16.7775 26.4141 16.9775 26.3484H18.3975C18.6438 26.3629 18.876 26.4679 19.0495 26.6433Z" fill="black"/>
</svg>
