<?xml version="1.0" encoding="utf-8"?>
<!-- Generator: Adobe Illustrator 26.3.1, SVG Export Plug-In . SVG Version: 6.00 Build 0)  -->
<svg version="1.1" id="Calque_1" xmlns="http://www.w3.org/2000/svg" xmlns:xlink="http://www.w3.org/1999/xlink" x="0px" y="0px"
	 viewBox="0 0 512 512" style="enable-background:new 0 0 512 512;" xml:space="preserve">
<style type="text/css">
	.st0{fill:#B48752;}
</style>
<g>
	<path class="st0" d="M256,0C114.8,0,0,114.8,0,256s114.8,256,256,256s256-114.8,256-256S397.2,0,256,0z M256,489.7
		C127.1,489.7,22.3,384.9,22.3,256S127.1,22.3,256,22.3S489.7,127.2,489.7,256C489.7,384.9,384.9,489.7,256,489.7z"/>
	<path class="st0" d="M267.1,251.4V100.2c0-6.2-5-11.1-11.1-11.1c-6.2,0-11.1,5-11.1,11.1V256c0,1.4,0.3,2.9,0.9,4.2
		c0.6,1.4,1.4,2.6,2.4,3.6l111.3,111.3c2.2,2.2,5,3.3,7.9,3.3c2.8,0,5.7-1.1,7.9-3.3c4.3-4.3,4.3-11.4,0-15.7L267.1,251.4z"/>
</g>
</svg>
