<svg width="49" height="48" viewBox="0 0 49 48" fill="none" xmlns="http://www.w3.org/2000/svg">
<g clip-path="url(#clip0_49_719)">
<path d="M26.445 32.7001C26.2492 32.9109 26.1181 33.1737 26.0675 33.457C26.0168 33.7403 26.0488 34.0321 26.1595 34.2978C26.2701 34.5634 26.4549 34.7916 26.6917 34.9552C26.9285 35.1187 27.2074 35.2106 27.495 35.2201C27.8833 35.2145 28.2543 35.0586 28.53 34.7851L38.28 25.0351L38.385 24.9301V24.8551C38.385 24.8551 38.385 24.8551 38.385 24.7801C38.3835 24.7551 38.3835 24.73 38.385 24.7051V24.6301C38.3999 24.5356 38.3999 24.4395 38.385 24.3451C38.385 24.3451 38.385 24.3451 38.385 24.2551C38.385 24.2551 38.385 24.2551 38.385 24.1801C38.385 24.1801 38.385 24.1801 38.385 24.1051C38.3463 24.0739 38.3111 24.0387 38.28 24.0001L28.5 13.2001C28.2113 13.0025 27.8625 12.9121 27.5141 12.9444C27.1658 12.9768 26.8397 13.1299 26.5923 13.3773C26.3449 13.6247 26.1917 13.9508 26.1594 14.2992C26.127 14.6476 26.2174 14.9963 26.415 15.2851L33.675 22.5001H1.5C1.10218 22.5001 0.720644 22.6581 0.43934 22.9394C0.158035 23.2207 0 23.6022 0 24.0001C0 24.3979 0.158035 24.7794 0.43934 25.0607C0.720644 25.342 1.10218 25.5001 1.5 25.5001H33.675L26.445 32.7001Z" fill="#FABA00"/>
<path d="M44.385 0H19.5C18.3781 0 17.3022 0.445659 16.5089 1.23894C15.7157 2.03222 15.27 3.10813 15.27 4.23V17.25C15.27 17.6478 15.428 18.0294 15.7093 18.3107C15.9906 18.592 16.3722 18.75 16.77 18.75C17.1678 18.75 17.5494 18.592 17.8307 18.3107C18.112 18.0294 18.27 17.6478 18.27 17.25V4.23C18.2812 3.90735 18.4144 3.60096 18.6427 3.37267C18.871 3.14438 19.1774 3.0112 19.5 3H44.385C44.7232 3 45.0475 3.13433 45.2866 3.37344C45.5257 3.61255 45.66 3.93685 45.66 4.275V43.77C45.66 44.1082 45.5257 44.4325 45.2866 44.6716C45.0475 44.9107 44.7232 45.045 44.385 45.045H19.5C19.3313 45.045 19.1643 45.0115 19.0086 44.9465C18.8529 44.8815 18.7117 44.7863 18.5931 44.6663C18.4745 44.5463 18.3809 44.404 18.3177 44.2475C18.2545 44.0911 18.223 43.9237 18.225 43.755V30.255C18.225 29.8572 18.067 29.4756 17.7857 29.1943C17.5044 28.913 17.1228 28.755 16.725 28.755C16.3272 28.755 15.9456 28.913 15.6643 29.1943C15.383 29.4756 15.225 29.8572 15.225 30.255V43.755C15.223 44.3156 15.3324 44.8709 15.5469 45.3888C15.7614 45.9067 16.0767 46.3768 16.4745 46.7718C16.8722 47.1668 17.3445 47.4788 17.8639 47.6896C18.3833 47.9005 18.9395 48.006 19.5 48H44.385C45.5057 47.996 46.5793 47.5491 47.3717 46.7567C48.1641 45.9643 48.611 44.8906 48.615 43.77V4.23C48.611 3.10935 48.1641 2.03573 47.3717 1.24331C46.5793 0.450882 45.5057 0.00395294 44.385 0Z" fill="#FABA00"/>
</g>
<defs>
<clipPath id="clip0_49_719">
<rect width="48.615" height="48" fill="white"/>
</clipPath>
</defs>
</svg>
