<svg width="53" height="32" viewBox="0 0 53 32" fill="none" xmlns="http://www.w3.org/2000/svg">
<path d="M49.61 18.12C49.694 17.9523 49.7384 17.7676 49.74 17.58V15.76C49.74 15.1606 49.5019 14.5858 49.0781 14.162C48.6542 13.7381 48.0794 13.5 47.48 13.5H46V3.35001C45.9987 2.90877 45.9105 2.47211 45.7404 2.06496C45.5704 1.65781 45.3218 1.28814 45.0088 0.977061C44.6959 0.665984 44.3248 0.419591 43.9166 0.251949C43.5084 0.084307 43.0713 -0.00130025 42.63 1.49265e-05H10.05C9.16154 1.49265e-05 8.30946 0.35296 7.68121 0.981207C7.05296 1.60945 6.70002 2.46154 6.70002 3.35001V13.5H5.11002C4.51063 13.5 3.93579 13.7381 3.51196 14.162C3.08812 14.5858 2.85002 15.1606 2.85002 15.76V17.58C2.85161 17.7676 2.89608 17.9523 2.98002 18.12C2.12394 18.3458 1.36696 18.8492 0.827681 19.5513C0.288404 20.2535 -0.00268841 21.1147 1.87124e-05 22V27.41C1.14123e-05 27.8883 0.189334 28.3472 0.526615 28.6864C0.863896 29.0255 1.32171 29.2174 1.80002 29.22H5.54002V30.9C5.5387 31.044 5.56592 31.1868 5.6201 31.3202C5.67429 31.4536 5.75437 31.575 5.85571 31.6772C5.95706 31.7795 6.07767 31.8607 6.21057 31.9161C6.34347 31.9715 6.48603 32 6.63002 32H7.63002C7.77316 32 7.9149 31.9718 8.04714 31.917C8.17939 31.8623 8.29955 31.782 8.40077 31.6808C8.50198 31.5795 8.58227 31.4594 8.63705 31.3271C8.69183 31.1949 8.72002 31.0532 8.72002 30.91V29.23H45.15V30.91C45.15 31.1991 45.2649 31.4763 45.4693 31.6808C45.6737 31.8852 45.9509 32 46.24 32H47.24C47.5291 32 47.8064 31.8852 48.0108 31.6808C48.2152 31.4763 48.33 31.1991 48.33 30.91V29.23H50.82C51.2983 29.2274 51.7561 29.0355 52.0934 28.6964C52.4307 28.3572 52.62 27.8983 52.62 27.42V22C52.621 21.1107 52.3256 20.2464 51.7805 19.5438C51.2354 18.8411 50.4717 18.3401 49.61 18.12ZM7.53002 3.35001C7.53002 2.68167 7.79552 2.0407 8.26811 1.56811C8.7407 1.09551 9.38167 0.830015 10.05 0.830015H42.63C43.2984 0.830015 43.9393 1.09551 44.4119 1.56811C44.8845 2.0407 45.15 2.68167 45.15 3.35001V13.35H40.21V12.28C40.21 11.9591 40.0825 11.6513 39.8556 11.4244C39.6287 11.1975 39.3209 11.07 39 11.07H30.29C29.9691 11.07 29.6613 11.1975 29.4344 11.4244C29.2075 11.6513 29.08 11.9591 29.08 12.28V13.39H23.61V12.28C23.6074 11.9582 23.4777 11.6504 23.2492 11.4238C23.0207 11.1972 22.7119 11.07 22.39 11.07H13.69C13.3691 11.07 13.0613 11.1975 12.8344 11.4244C12.6075 11.6513 12.48 11.9591 12.48 12.28V13.39H7.53002V3.35001ZM39.37 12.28V13.39H29.91V12.28C29.9126 12.181 29.9538 12.0869 30.0248 12.0178C30.0958 11.9486 30.1909 11.91 30.29 11.91H39C39.0974 11.9125 39.19 11.9523 39.2588 12.0212C39.3277 12.09 39.3675 12.1827 39.37 12.28ZM22.77 12.28V13.39H13.31V12.28C13.3126 12.181 13.3538 12.0869 13.4248 12.0178C13.4958 11.9486 13.5909 11.91 13.69 11.91H22.39C22.4891 11.91 22.5843 11.9486 22.6552 12.0178C22.7262 12.0869 22.7674 12.181 22.77 12.28ZM3.68002 15.76C3.68002 15.3808 3.83068 15.017 4.09886 14.7489C4.36703 14.4807 4.73076 14.33 5.11002 14.33H47.48C47.8593 14.33 48.223 14.4807 48.4912 14.7489C48.7594 15.017 48.91 15.3808 48.91 15.76V17.58C48.9074 17.687 48.8631 17.7887 48.7865 17.8635C48.7098 17.9382 48.607 17.98 48.5 17.98H4.09002C3.98299 17.98 3.88019 17.9382 3.80358 17.8635C3.72697 17.7887 3.68263 17.687 3.68002 17.58V15.76ZM7.85002 30.91C7.85007 30.9773 7.82405 31.0419 7.77744 31.0904C7.73082 31.1389 7.66723 31.1674 7.60002 31.17H6.60002C6.53281 31.1674 6.46922 31.1389 6.4226 31.0904C6.37598 31.0419 6.34997 30.9773 6.35002 30.91V29.3H7.85002V30.91ZM47.46 30.91C47.4601 30.9773 47.4341 31.0419 47.3874 31.0904C47.3408 31.1389 47.2772 31.1674 47.21 31.17H46.21C46.1428 31.1674 46.0792 31.1389 46.0326 31.0904C45.986 31.0419 45.96 30.9773 45.96 30.91V29.3H47.43V30.91H47.46ZM51.76 27.42C51.76 27.6852 51.6547 27.9396 51.4671 28.1271C51.2796 28.3147 51.0252 28.42 50.76 28.42H1.80002C1.5348 28.42 1.28045 28.3147 1.09291 28.1271C0.905376 27.9396 0.800019 27.6852 0.800019 27.42V22C0.805301 21.1548 1.14477 20.346 1.74432 19.7502C2.34386 19.1544 3.15478 18.82 4.00002 18.82H48.56C49.4053 18.82 50.2162 19.1544 50.8157 19.7502C51.4153 20.346 51.7547 21.1548 51.76 22V27.41V27.42Z" fill="black"/>
</svg>
