<svg width="20" height="24" viewBox="0 0 20 24" fill="none" xmlns="http://www.w3.org/2000/svg">
<path d="M14.4985 2C14.2985 0.8 13.2985 0 11.9985 0H4.99854C2.49854 0 0.498535 2 0.498535 4.5V23.5C0.498535 23.8 0.698535 24 0.998535 24C1.29854 24 1.49854 23.8 1.49854 23.5V4.5C1.49854 2.6 3.09854 1 4.99854 1H11.9985C12.6985 1 13.1985 1.4 13.3985 2C10.5985 2.3 8.49854 4.6 8.49854 7.5V8H19.4985V7.5C19.5985 4.6 17.2985 2.2 14.4985 2ZM9.59853 7C9.79853 4.8 11.7985 3 14.0985 3C16.3985 3 18.2985 4.8 18.5985 7H9.59853Z" fill="#0B3B2C"/>
<path d="M10.0986 9C9.79863 9 9.59863 9.2 9.59863 9.5V10.5C9.59863 10.8 9.79863 11 10.0986 11C10.3986 11 10.5986 10.8 10.5986 10.5V9.5C10.5986 9.2 10.2986 9 10.0986 9Z" fill="#0B3B2C"/>
<path d="M10.0986 12C9.79863 12 9.59863 12.2 9.59863 12.5V13.5C9.59863 13.8 9.79863 14 10.0986 14C10.3986 14 10.5986 13.8 10.5986 13.5V12.5C10.5986 12.2 10.2986 12 10.0986 12Z" fill="#0B3B2C"/>
<path d="M10.0986 15C9.79863 15 9.59863 15.2 9.59863 15.5V16.5C9.59863 16.8 9.79863 17 10.0986 17C10.3986 17 10.5986 16.8 10.5986 16.5V15.5C10.5986 15.2 10.2986 15 10.0986 15Z" fill="#0B3B2C"/>
<path d="M14.0986 10C13.7986 10 13.5986 10.2 13.5986 10.5V11.5C13.5986 11.8 13.7986 12 14.0986 12C14.3986 12 14.5986 11.8 14.5986 11.5V10.5C14.5986 10.2 14.2986 10 14.0986 10Z" fill="#0B3B2C"/>
<path d="M14.0986 13C13.7986 13 13.5986 13.2 13.5986 13.5V14.5C13.5986 14.8 13.7986 15 14.0986 15C14.3986 15 14.5986 14.8 14.5986 14.5V13.5C14.5986 13.2 14.2986 13 14.0986 13Z" fill="#0B3B2C"/>
<path d="M14.0986 16C13.7986 16 13.5986 16.2 13.5986 16.5V17.5C13.5986 17.8 13.7986 18 14.0986 18C14.3986 18 14.5986 17.8 14.5986 17.5V16.5C14.5986 16.2 14.2986 16 14.0986 16Z" fill="#0B3B2C"/>
<path d="M18.0986 9C17.7986 9 17.5986 9.2 17.5986 9.5V10.5C17.5986 10.8 17.7986 11 18.0986 11C18.3986 11 18.5986 10.8 18.5986 10.5V9.5C18.5986 9.2 18.2986 9 18.0986 9Z" fill="#0B3B2C"/>
<path d="M18.0986 12C17.7986 12 17.5986 12.2 17.5986 12.5V13.5C17.5986 13.8 17.7986 14 18.0986 14C18.3986 14 18.5986 13.8 18.5986 13.5V12.5C18.5986 12.2 18.2986 12 18.0986 12Z" fill="#0B3B2C"/>
<path d="M18.0986 15C17.7986 15 17.5986 15.2 17.5986 15.5V16.5C17.5986 16.8 17.7986 17 18.0986 17C18.3986 17 18.5986 16.8 18.5986 16.5V15.5C18.5986 15.2 18.2986 15 18.0986 15Z" fill="#0B3B2C"/>
</svg>
