<svg width="642" height="441" viewBox="0 0 642 441" fill="none" xmlns="http://www.w3.org/2000/svg">
<path d="M344.066 170.26C333.462 132.279 327.714 93.4474 326.918 54.4311H327.239C328.572 54.4311 329.851 53.9839 330.793 53.188C331.736 52.392 332.266 51.3125 332.266 50.1868V23.6075C332.266 22.4819 331.736 21.4023 330.793 20.6064C329.851 19.8104 328.572 19.3633 327.239 19.3633H326.775V8.43654C326.775 6.21718 325.731 4.08871 323.873 2.51939C322.014 0.950059 319.493 0.0684204 316.864 0.0684204C314.236 0.0684204 311.715 0.950059 309.856 2.51939C307.998 4.08871 306.954 6.21718 306.954 8.43654V19.3633H306.597C305.942 19.3672 305.293 19.4801 304.69 19.6955C304.086 19.911 303.538 20.2247 303.078 20.6188C302.618 21.0129 302.254 21.4797 302.008 21.9925C301.761 22.5053 301.637 23.0541 301.642 23.6075V50.1868C301.637 50.7402 301.761 51.289 302.008 51.8018C302.254 52.3146 302.618 52.7814 303.078 53.1755C303.538 53.5697 304.086 53.8834 304.69 54.0988C305.293 54.3142 305.942 54.4272 306.597 54.4311H306.989C306.107 93.72 300.227 132.815 289.449 171.043C126.917 187.478 0 305.174 0 440.057H24.9556C24.9556 318.358 137.256 211.8 282.818 193.047C233.905 342.77 127.487 440.057 127.487 440.057H203.994C203.994 414.782 215.886 390.542 237.053 372.669C258.22 354.797 286.929 344.757 316.864 344.757C346.8 344.757 375.509 354.797 396.676 372.669C417.843 390.542 429.735 414.782 429.735 440.057H506.242C506.242 440.057 399.289 342.318 350.555 192.023C420.942 199.423 486.128 227.161 535.047 270.527C587.344 315.943 616.737 376.715 617.044 440.057H642C642.071 301.321 511.411 183.354 344.066 170.26ZM316.864 145.397C322.334 174.753 330.705 203.671 341.891 231.847H291.98C303.151 203.675 311.475 174.755 316.864 145.397ZM251.766 320.465C264.565 298.401 276.722 275.976 288.094 253.4H345.813C357.15 275.976 369.342 298.551 382.177 320.465H251.766Z" fill="#D9D9D9" fill-opacity="0.25"/>
</svg>
