<?xml version="1.0" encoding="utf-8"?>
<!-- Generator: Adobe Illustrator 26.3.1, SVG Export Plug-In . SVG Version: 6.00 Build 0)  -->
<svg version="1.1" id="Calque_1" xmlns="http://www.w3.org/2000/svg" xmlns:xlink="http://www.w3.org/1999/xlink" x="0px" y="0px"
	 viewBox="0 0 24 24" style="enable-background:new 0 0 24 24;" xml:space="preserve">
<style type="text/css">
	.st0{fill:#B48752;}
</style>
<path class="st0" d="M12,0C9.6,0,7.3,0.7,5.3,2c-2,1.3-3.5,3.2-4.4,5.4C0,9.6-0.2,12,0.2,14.3s1.6,4.5,3.3,6.1s3.8,2.8,6.1,3.3
	c2.3,0.5,4.7,0.2,6.9-0.7c2.2-0.9,4.1-2.4,5.4-4.4c1.3-2,2-4.3,2-6.7c0-3.2-1.3-6.2-3.5-8.5C18.2,1.3,15.2,0,12,0z M16.4,6.4h-2.1
	c-0.2,0-0.4,0.1-0.6,0.2c-0.1,0.1-0.1,0.1-0.2,0.2c0,0.1-0.1,0.2-0.1,0.2V9h2.9c0,0.4-0.1,0.8-0.1,1.1l-0.1,0.9
	c-0.1,0.3-0.1,0.6-0.1,0.9h-2.6v8.7H9.5V12H7.6V9h1.9V6.7c0-0.1,0-0.3,0-0.7c0-0.4,0.2-0.8,0.4-1.1c0.3-0.4,0.7-0.8,1.2-1.1
	c0.7-0.4,1.5-0.5,2.4-0.5h2.9V6.4z"/>
</svg>
