<svg width="24" height="24" viewBox="0 0 24 24" fill="none" xmlns="http://www.w3.org/2000/svg">
<path d="M12 0C9.62663 0 7.30655 0.703788 5.33316 2.02236C3.35977 3.34094 1.8217 5.21509 0.913451 7.4078C0.00519943 9.60051 -0.232441 12.0133 0.230582 14.3411C0.693605 16.6689 1.83649 18.8071 3.51472 20.4853C5.19295 22.1635 7.33115 23.3064 9.65892 23.7694C11.9867 24.2324 14.3995 23.9948 16.5922 23.0866C18.7849 22.1783 20.6591 20.6402 21.9776 18.6668C23.2962 16.6935 24 14.3734 24 12C24 8.8174 22.7357 5.76516 20.4853 3.51472C18.2348 1.26428 15.1826 0 12 0ZM16.3688 6.42897H14.2691C14.059 6.43488 13.8583 6.51716 13.7046 6.6604C13.6327 6.71185 13.5722 6.77744 13.5265 6.85315C13.4809 6.92885 13.4512 7.01308 13.4393 7.10066V9.03104H16.3688C16.3349 9.41486 16.301 9.78739 16.2615 10.1599L16.1486 11.1082C16.0978 11.4299 16.0527 11.7291 16.0075 12H13.4055V20.7093H9.51647V12.0056H7.61995V9.03104H9.51647V6.65475C9.51647 6.54751 9.51647 6.31044 9.56162 5.9492C9.61101 5.54639 9.75195 5.16023 9.97366 4.82032C10.2716 4.3753 10.6749 4.01079 11.1477 3.75917C11.8802 3.40708 12.6899 3.24592 13.5014 3.29069H16.3688V6.42897Z" fill="white"/>
</svg>
