<svg width="32" height="41" viewBox="0 0 32 41" fill="none" xmlns="http://www.w3.org/2000/svg">
<g clip-path="url(#clip0_44_691)">
<path d="M8.00004 6.00011V9.52011C8.00076 9.64772 8.032 9.7733 8.09114 9.88637C8.15029 9.99945 8.23563 10.0967 8.34004 10.1701V12.2501C8.34004 14.3321 9.16709 16.3287 10.6392 17.8009C12.1114 19.2731 14.1081 20.1001 16.19 20.1001C18.272 20.1001 20.2687 19.2731 21.7408 17.8009C23.213 16.3287 24.04 14.3321 24.04 12.2501V10.1501C24.1357 10.0751 24.2132 9.9795 24.2668 9.87044C24.3205 9.76138 24.3489 9.64165 24.35 9.52011V6.00011C24.3428 5.87831 24.3074 5.75985 24.2467 5.65401C24.1859 5.54818 24.1015 5.45785 24 5.39011L24.42 2.57011C24.4449 2.40895 24.4199 2.24405 24.3484 2.0975C24.2769 1.95094 24.1623 1.82974 24.02 1.75011C21.5194 0.550252 18.7732 -0.0489964 16 0.000107957C13.2329 -0.0533177 10.4921 0.546225 8.00004 1.75011C7.85774 1.82974 7.74317 1.95094 7.67168 2.0975C7.60019 2.24405 7.5752 2.40895 7.60004 2.57011L8.00004 5.70011C7.97897 5.799 7.97897 5.90122 8.00004 6.00011ZM9.58004 7.11011H22.71V8.71011H9.58004V7.11011ZM22.4 12.2501C22.4 13.9051 21.7426 15.4922 20.5724 16.6625C19.4022 17.8327 17.815 18.4901 16.16 18.4901C14.5051 18.4901 12.9179 17.8327 11.7477 16.6625C10.5775 15.4922 9.92004 13.9051 9.92004 12.2501V10.3201H22.4V12.2501ZM15.94 1.61011H16C18.314 1.58029 20.6101 2.0191 22.75 2.90011L22.41 5.22011H9.59004L9.25004 2.90011C11.3693 2.02012 13.6456 1.5812 15.94 1.61011Z" fill="white"/>
<path d="M29 24.93C27.2169 22.7759 24.7043 21.3524 21.94 20.93C21.7503 20.8996 21.556 20.9384 21.3926 21.0394C21.2292 21.1404 21.1076 21.2968 21.05 21.48C20.39 23.55 19.63 25.72 18.89 27.68L17.56 25.38L18.68 23C18.7391 22.8766 18.7655 22.7401 18.7567 22.6035C18.748 22.467 18.7043 22.3349 18.63 22.22L18.21 21.57C18.1365 21.4565 18.0358 21.3632 17.917 21.2985C17.7983 21.2339 17.6652 21.2001 17.53 21.2H14.47C14.3348 21.2001 14.2017 21.2339 14.0829 21.2985C13.9641 21.3632 13.8634 21.4565 13.79 21.57L13.37 22.22C13.3034 22.3392 13.2685 22.4735 13.2685 22.61C13.2685 22.7466 13.3034 22.8808 13.37 23L14.52 25.4L13.19 27.7C12.45 25.7 11.69 23.57 11.03 21.5C10.9724 21.3168 10.8508 21.1604 10.6874 21.0594C10.5239 20.9584 10.3296 20.9196 10.14 20.95C7.37571 21.3724 4.86308 22.7959 3.07998 24.95C1.1091 27.345 0.0467091 30.3586 0.0799821 33.46V40.07C0.0786583 40.1759 0.0983735 40.281 0.137984 40.3793C0.177595 40.4775 0.236313 40.5669 0.310732 40.6422C0.385151 40.7176 0.47379 40.7774 0.571508 40.8182C0.669226 40.859 0.774078 40.88 0.879982 40.88H31.2C31.3059 40.88 31.4107 40.859 31.5085 40.8182C31.6062 40.7774 31.6948 40.7176 31.7692 40.6422C31.8437 40.5669 31.9024 40.4775 31.942 40.3793C31.9816 40.281 32.0013 40.1759 32 40.07V33.44C32.0333 30.3386 30.9709 27.3249 29 24.93ZM17 22.8L16.13 24.62H15.89L15 22.8H17ZM15.85 26.23H16.17L18.12 29.6C17.5541 31.1305 16.8442 32.6037 16 34C15.1592 32.6034 14.4527 31.1301 13.89 29.6L15.85 26.23ZM30.4 39.23H1.60998V33.44C1.59248 30.7258 2.5306 28.092 4.25998 26C5.64607 24.3289 7.5498 23.1677 9.66998 22.7C10.06 23.85 10.89 26.32 11.82 28.76C13.38 32.86 14.36 34.64 15.07 35.41C15.1241 35.5719 15.2274 35.7129 15.3654 35.8132C15.5034 35.9136 15.6693 35.9684 15.84 35.97H16.16C16.3306 35.9684 16.4966 35.9136 16.6346 35.8132C16.7726 35.7129 16.8759 35.5719 16.93 35.41C17.64 34.64 18.62 32.86 20.18 28.76C21.11 26.32 21.94 23.85 22.33 22.7C24.4502 23.1677 26.3539 24.3289 27.74 26C29.4782 28.1026 30.4169 30.7521 30.39 33.48L30.4 39.23Z" fill="white"/>
<path d="M20.76 32.51V36.43C20.76 36.6422 20.8443 36.8457 20.9943 36.9957C21.1444 37.1457 21.3478 37.23 21.56 37.23H28.56C28.6659 37.2313 28.771 37.2116 28.8692 37.172C28.9674 37.1324 29.0568 37.0737 29.1322 36.9993C29.2075 36.9249 29.2673 36.8362 29.3082 36.7385C29.349 36.6408 29.37 36.5359 29.37 36.43V32.51C29.37 32.4041 29.349 32.2993 29.3082 32.2016C29.2673 32.1038 29.2075 32.0152 29.1322 31.9408C29.0568 31.8664 28.9674 31.8076 28.8692 31.768C28.771 31.7284 28.6659 31.7087 28.56 31.71H21.56C21.3478 31.71 21.1444 31.7943 20.9943 31.9443C20.8443 32.0944 20.76 32.2978 20.76 32.51ZM22.36 33.32H27.79V35.62H22.36V33.32Z" fill="white"/>
</g>
<defs>
<clipPath id="clip0_44_691">
<rect width="32" height="40.86" fill="white"/>
</clipPath>
</defs>
</svg>
