<svg width="23" height="24" viewBox="0 0 23 24" fill="none" xmlns="http://www.w3.org/2000/svg">
<path d="M21.3258 19.4441L18.9582 20.6554L16.7557 15.5209H10.0588C9.64803 15.5209 9.25413 15.3578 8.96371 15.0673C8.67329 14.7769 8.51013 14.383 8.51013 13.9723V9.2989C8.496 9.08731 8.52548 8.87508 8.59673 8.67535C8.66799 8.47562 8.77951 8.29265 8.92438 8.13779C9.06924 7.98292 9.24437 7.85946 9.43891 7.77506C9.63345 7.69065 9.84325 7.6471 10.0553 7.6471C10.2674 7.6471 10.4772 7.69065 10.6717 7.77506C10.8662 7.85946 11.0414 7.98292 11.1862 8.13779C11.3311 8.29265 11.4426 8.47562 11.5139 8.67535C11.5851 8.87508 11.6146 9.08731 11.6005 9.2989V12.3961H17.0241V10.8406H13.1491V9.2989C13.1491 8.89216 13.069 8.48941 12.9133 8.11364C12.7577 7.73786 12.5296 7.39643 12.2419 7.10882C11.9543 6.82122 11.6129 6.59307 11.2371 6.43742C10.8614 6.28177 10.4586 6.20166 10.0519 6.20166C9.64513 6.20166 9.24238 6.28177 8.8666 6.43742C8.49083 6.59307 8.14939 6.82122 7.86179 7.10882C7.57418 7.39643 7.34604 7.73786 7.19039 8.11364C7.03474 8.48941 6.95463 8.89216 6.95463 9.2989V10.0698C5.6442 10.0718 4.36093 10.4434 3.25223 11.142C2.14352 11.8406 1.25437 12.8377 0.686924 14.0189C0.119472 15.2001 -0.103261 16.5174 0.0443124 17.8195C0.191886 19.1216 0.703779 20.3557 1.52118 21.3799C2.33859 22.4041 3.42835 23.177 4.66527 23.6097C5.90218 24.0425 7.23608 24.1175 8.51372 23.8262C9.79136 23.5349 10.9609 22.8891 11.888 21.9629C12.8151 21.0368 13.4621 19.868 13.7548 18.5906H12.1511C11.8639 19.5533 11.3147 20.4171 10.5647 21.0855C9.81483 21.754 8.89381 22.2007 7.90461 22.3758C6.9154 22.5509 5.897 22.4475 4.9632 22.0771C4.0294 21.7067 3.21701 21.0839 2.61681 20.2783C2.01661 19.4727 1.65226 18.5161 1.56446 17.5154C1.47667 16.5146 1.66891 15.5092 2.11968 14.6114C2.57045 13.7137 3.262 12.9589 4.11704 12.4316C4.97208 11.9043 5.95693 11.6251 6.96151 11.6253V13.9448C6.9606 14.3518 7.0401 14.7549 7.19543 15.1311C7.35076 15.5073 7.57886 15.8491 7.86665 16.1369C8.15443 16.4247 8.49623 16.6528 8.87241 16.8081C9.2486 16.9634 9.65176 17.0429 10.0588 17.042H15.737L18.1804 22.7203L22.0141 20.8206L21.3258 19.4441Z" fill="#CFA06F"/>
<path d="M10.4442 5.42361C10.9808 5.42361 11.5054 5.26439 11.9515 4.96611C12.3976 4.66783 12.7452 4.24389 12.9502 3.74797C13.1553 3.25205 13.2086 2.70645 13.1034 2.18022C12.9982 1.654 12.7392 1.17081 12.3593 0.791836C11.9794 0.412858 11.4955 0.155128 10.969 0.0512713C10.4425 -0.0525857 9.89706 0.00210002 9.40166 0.208406C8.90627 0.414712 8.48322 0.763362 8.18607 1.21022C7.88892 1.65708 7.73104 2.18205 7.7324 2.71869C7.7324 3.07449 7.80259 3.42678 7.93896 3.75541C8.07532 4.08404 8.27518 4.38253 8.52709 4.6338C8.77899 4.88506 9.07799 5.08416 9.40696 5.21969C9.73593 5.35522 10.0884 5.42452 10.4442 5.42361ZM10.4442 1.5555C10.6743 1.5555 10.8992 1.62372 11.0904 1.75154C11.2817 1.87935 11.4308 2.06101 11.5188 2.27356C11.6069 2.4861 11.6299 2.71998 11.585 2.94562C11.5402 3.17125 11.4294 3.37851 11.2667 3.54119C11.104 3.70386 10.8968 3.81464 10.6711 3.85952C10.4455 3.90441 10.2116 3.88137 9.99907 3.79333C9.78653 3.70529 9.60486 3.55621 9.47705 3.36492C9.34924 3.17364 9.28102 2.94875 9.28102 2.71869C9.28011 2.56568 9.30957 2.41402 9.3677 2.27248C9.42583 2.13094 9.51148 2.00235 9.61967 1.89416C9.72787 1.78596 9.85646 1.70032 9.998 1.64219C10.1395 1.58405 10.2912 1.55459 10.4442 1.5555Z" fill="#CFA06F"/>
</svg>
