<svg width="25" height="24" viewBox="0 0 25 24" fill="none" xmlns="http://www.w3.org/2000/svg">
<path fill-rule="evenodd" clip-rule="evenodd" d="M5.38303 2.02236C7.35641 0.703788 9.67649 0 12.0499 0C15.2325 0 18.2847 1.26428 20.5351 3.51472C22.7856 5.76515 24.0499 8.8174 24.0499 12C24.0499 14.3734 23.3461 16.6935 22.0275 18.6668C20.7089 20.6402 18.8348 22.1783 16.6421 23.0866C14.4494 23.9948 12.0366 24.2324 9.70879 23.7694C7.38101 23.3064 5.24282 22.1635 3.56459 20.4853C1.88636 18.8071 0.743469 16.6689 0.280449 14.3411C-0.182575 12.0133 0.0550649 9.60051 0.963318 7.4078C1.87157 5.21509 3.40964 3.34094 5.38303 2.02236ZM17.7618 17.6628C18.534 16.8894 18.9684 15.8417 18.9699 14.7488L18.9981 9.15522C18.9951 8.06333 18.5601 7.01702 17.788 6.24494C17.0159 5.47286 15.9696 5.03779 14.8777 5.03481H9.28411C8.19125 5.0363 7.14349 5.47071 6.37019 6.24295C5.59689 7.01519 5.16104 8.06236 5.15805 9.15522V14.7488C5.15955 15.8427 5.59473 16.8913 6.36819 17.6647C7.14166 18.4382 8.19027 18.8734 9.28411 18.8749H14.8495C15.9424 18.8719 16.9895 18.4361 17.7618 17.6628ZM14.8495 6.42886H9.28411C8.92562 6.42811 8.5705 6.49808 8.23908 6.63476C7.90767 6.77143 7.60646 6.97213 7.35271 7.22536C7.09896 7.47859 6.89764 7.77938 6.76028 8.11051C6.62292 8.44164 6.55222 8.79661 6.55222 9.1551V14.7487C6.54923 15.1091 6.61773 15.4665 6.75375 15.8002C6.88978 16.134 7.09062 16.4374 7.34467 16.6931C7.59872 16.9487 7.90094 17.1514 8.23384 17.2895C8.56673 17.4276 8.92371 17.4983 9.28411 17.4975H14.8777C15.2362 17.4975 15.5912 17.4268 15.9223 17.2895C16.2534 17.1521 16.5542 16.9508 16.8075 16.697C17.0607 16.4433 17.2614 16.1421 17.3981 15.8107C17.5347 15.4792 17.6047 15.1241 17.604 14.7656V9.1551C17.604 8.7947 17.5325 8.43787 17.3938 8.10525C17.255 7.77264 17.0517 7.47084 16.7955 7.21731C16.5394 6.96378 16.2355 6.76356 15.9014 6.62822C15.5674 6.49289 15.2099 6.42513 14.8495 6.42886ZM12.0273 15.5333C11.3195 15.5333 10.6276 15.3234 10.0391 14.9302C9.45066 14.537 8.99199 13.9781 8.72113 13.3242C8.45028 12.6703 8.37942 11.9508 8.5175 11.2566C8.65557 10.5624 8.9964 9.92478 9.49687 9.42431C9.99734 8.92384 10.635 8.58302 11.3291 8.44494C12.0233 8.30686 12.7428 8.37772 13.3967 8.64858C14.0506 8.91943 14.6095 9.3781 15.0027 9.96659C15.396 10.5551 15.6058 11.247 15.6058 11.9547C15.6059 12.8999 15.2319 13.8067 14.5657 14.4772C13.8995 15.1477 12.995 15.5273 12.0499 15.5333H12.0273ZM15.6115 9.26235C15.4418 9.26235 15.2759 9.21203 15.1348 9.11776C14.9937 9.02348 14.8838 8.88949 14.8188 8.73272C14.7539 8.57595 14.7369 8.40345 14.77 8.23702C14.8031 8.07059 14.8848 7.91772 15.0048 7.79774C15.1248 7.67775 15.2777 7.59604 15.4441 7.56293C15.6105 7.52983 15.783 7.54682 15.9398 7.61176C16.0966 7.67669 16.2306 7.78666 16.3248 7.92775C16.4191 8.06884 16.4694 8.23471 16.4694 8.4044C16.4681 8.62765 16.3803 8.84171 16.2246 9.00167C16.0688 9.16163 15.8572 9.25505 15.6341 9.26235H15.6115ZM12.0499 9.76465C11.6167 9.76465 11.1933 9.89309 10.8331 10.1337C10.473 10.3744 10.1923 10.7164 10.0265 11.1166C9.86078 11.5168 9.81741 11.9571 9.90191 12.3819C9.98642 12.8068 10.195 13.197 10.5013 13.5033C10.8076 13.8095 11.1978 14.0181 11.6226 14.1026C12.0474 14.1871 12.4878 14.1438 12.888 13.978C13.2881 13.8122 13.6302 13.5315 13.8708 13.1714C14.1114 12.8112 14.2399 12.3878 14.2399 11.9547C14.2399 11.3738 14.0092 10.8168 13.5984 10.4061C13.1877 9.99538 12.6307 9.76465 12.0499 9.76465Z" fill="white"/>
</svg>
