<?xml version="1.0" encoding="utf-8"?>
<!-- Generator: Adobe Illustrator 26.3.1, SVG Export Plug-In . SVG Version: 6.00 Build 0)  -->
<svg version="1.1" id="Calque_1" xmlns="http://www.w3.org/2000/svg" xmlns:xlink="http://www.w3.org/1999/xlink" x="0px" y="0px"
	 viewBox="0 0 25 24" style="enable-background:new 0 0 25 24;" xml:space="preserve">
<style type="text/css">
	.st0{fill-rule:evenodd;clip-rule:evenodd;fill:#B48752;}
</style>
<path class="st0" d="M5.4,2c2-1.3,4.3-2,6.7-2c3.2,0,6.2,1.3,8.5,3.5C22.8,5.8,24,8.8,24,12c0,2.4-0.7,4.7-2,6.7
	c-1.3,2-3.2,3.5-5.4,4.4c-2.2,0.9-4.6,1.1-6.9,0.7c-2.3-0.5-4.5-1.6-6.1-3.3s-2.8-3.8-3.3-6.1C-0.2,12,0.1,9.6,1,7.4
	C1.9,5.2,3.4,3.3,5.4,2z M17.8,17.7c0.8-0.8,1.2-1.8,1.2-2.9l0-5.6c0-1.1-0.4-2.1-1.2-2.9S16,5,14.9,5H9.3C8.2,5,7.1,5.5,6.4,6.2
	S5.2,8.1,5.2,9.2v5.6c0,1.1,0.4,2.1,1.2,2.9c0.8,0.8,1.8,1.2,2.9,1.2h5.6C15.9,18.9,17,18.4,17.8,17.7z M14.8,6.4H9.3
	c-0.4,0-0.7,0.1-1,0.2C7.9,6.8,7.6,7,7.4,7.2C7.1,7.5,6.9,7.8,6.8,8.1s-0.2,0.7-0.2,1v5.6c0,0.4,0.1,0.7,0.2,1.1
	c0.1,0.3,0.3,0.6,0.6,0.9c0.3,0.3,0.6,0.5,0.9,0.6c0.3,0.1,0.7,0.2,1.1,0.2h5.6c0.4,0,0.7-0.1,1-0.2c0.3-0.1,0.6-0.3,0.9-0.6
	c0.3-0.3,0.5-0.6,0.6-0.9c0.1-0.3,0.2-0.7,0.2-1V9.2c0-0.4-0.1-0.7-0.2-1c-0.1-0.3-0.3-0.6-0.6-0.9c-0.3-0.3-0.6-0.5-0.9-0.6
	C15.6,6.5,15.2,6.4,14.8,6.4z M12,15.5c-0.7,0-1.4-0.2-2-0.6c-0.6-0.4-1-1-1.3-1.6c-0.3-0.7-0.3-1.4-0.2-2.1c0.1-0.7,0.5-1.3,1-1.8
	s1.1-0.8,1.8-1c0.7-0.1,1.4-0.1,2.1,0.2c0.7,0.3,1.2,0.7,1.6,1.3c0.4,0.6,0.6,1.3,0.6,2c0,0.9-0.4,1.9-1,2.5
	C13.9,15.1,13,15.5,12,15.5L12,15.5z M15.6,9.3c-0.2,0-0.3-0.1-0.5-0.1C15,9,14.9,8.9,14.8,8.7c-0.1-0.2-0.1-0.3,0-0.5
	c0-0.2,0.1-0.3,0.2-0.4c0.1-0.1,0.3-0.2,0.4-0.2c0.2,0,0.3,0,0.5,0c0.2,0.1,0.3,0.2,0.4,0.3c0.1,0.1,0.1,0.3,0.1,0.5
	c0,0.2-0.1,0.4-0.2,0.6C16.1,9.2,15.9,9.3,15.6,9.3L15.6,9.3z M12,9.8c-0.4,0-0.9,0.1-1.2,0.4c-0.4,0.2-0.6,0.6-0.8,1
	c-0.2,0.4-0.2,0.8-0.1,1.3c0.1,0.4,0.3,0.8,0.6,1.1c0.3,0.3,0.7,0.5,1.1,0.6c0.4,0.1,0.9,0,1.3-0.1c0.4-0.2,0.7-0.4,1-0.8
	c0.2-0.4,0.4-0.8,0.4-1.2c0-0.6-0.2-1.1-0.6-1.5C13.2,10,12.6,9.8,12,9.8z"/>
</svg>
