<svg width="25" height="24" viewBox="0 0 25 24" fill="none" xmlns="http://www.w3.org/2000/svg">
<path d="M12.1496 0C9.77619 0 7.45612 0.703788 5.48273 2.02236C3.50934 3.34094 1.97127 5.21509 1.06301 7.4078C0.154763 9.60051 -0.0828728 12.0133 0.38015 14.3411C0.843172 16.6689 1.98606 18.8071 3.66429 20.4853C5.34252 22.1635 7.48071 23.3064 9.80849 23.7694C12.1363 24.2324 14.5491 23.9948 16.7418 23.0866C18.9345 22.1783 20.8086 20.6402 22.1272 18.6668C23.4458 16.6935 24.1496 14.3734 24.1496 12C24.1496 8.8174 22.8853 5.76515 20.6348 3.51472C18.3844 1.26428 15.3322 0 12.1496 0ZM9.09595 17.3848H6.83819V10.1881H9.09595V17.3848ZM7.90498 9.28504C7.73256 9.29907 7.5591 9.27724 7.39553 9.22094C7.23197 9.16463 7.08183 9.07507 6.95457 8.95789C6.82732 8.84071 6.72571 8.69845 6.65614 8.54007C6.58656 8.38169 6.55053 8.21062 6.55032 8.03763C6.52294 7.75949 6.58049 7.47958 6.71537 7.23479C6.85025 6.99001 7.05614 6.79184 7.30589 6.6664C7.55565 6.54096 7.83755 6.49414 8.11444 6.53212C8.39134 6.57009 8.65022 6.69107 8.85699 6.87911C9.06375 7.06716 9.20868 7.31344 9.27268 7.5855C9.33668 7.85756 9.31675 8.14262 9.2155 8.40313C9.11426 8.66363 8.93646 8.88734 8.70553 9.04478C8.47461 9.20221 8.2014 9.28598 7.92192 9.28504H7.90498ZM18.1891 17.3848H15.6152V13.6595C15.6152 12.683 15.2088 12.0169 14.3227 12.0169C14.0508 12.0179 13.786 12.1039 13.5654 12.2627C13.3447 12.4216 13.1793 12.6455 13.0922 12.9031C13.0418 13.0867 13.0227 13.2776 13.0357 13.4675V17.3622H10.4845C10.4845 17.3622 10.5183 10.7639 10.4845 10.1656H13.0357V11.2944C13.1881 10.7977 14.0066 10.0922 15.2935 10.0922C16.9134 10.0922 18.1778 11.1308 18.1778 13.3603L18.1891 17.3848Z" fill="white"/>
</svg>
