<?xml version="1.0" encoding="utf-8"?>
<!-- Generator: Adobe Illustrator 26.3.1, SVG Export Plug-In . SVG Version: 6.00 Build 0)  -->
<svg version="1.1" id="Calque_1" xmlns="http://www.w3.org/2000/svg" xmlns:xlink="http://www.w3.org/1999/xlink" x="0px" y="0px"
	 viewBox="0 0 25 24" style="enable-background:new 0 0 25 24;" xml:space="preserve">
<style type="text/css">
	.st0{fill:#B48752;}
</style>
<path class="st0" d="M12.1,0C9.8,0,7.5,0.7,5.5,2C3.5,3.3,2,5.2,1.1,7.4C0.2,9.6-0.1,12,0.4,14.3c0.5,2.3,1.6,4.5,3.3,6.1
	s3.8,2.8,6.1,3.3c2.3,0.5,4.7,0.2,6.9-0.7c2.2-0.9,4.1-2.4,5.4-4.4c1.3-2,2-4.3,2-6.7c0-3.2-1.3-6.2-3.5-8.5C18.4,1.3,15.3,0,12.1,0
	z M9.1,17.4H6.8v-7.2h2.3V17.4z M7.9,9.3c-0.2,0-0.3,0-0.5-0.1C7.2,9.2,7.1,9.1,7,9C6.8,8.8,6.7,8.7,6.7,8.5C6.6,8.4,6.6,8.2,6.6,8
	c0-0.3,0-0.6,0.2-0.8C6.9,7,7.1,6.8,7.3,6.7c0.2-0.1,0.5-0.2,0.8-0.1c0.3,0,0.5,0.2,0.7,0.3c0.2,0.2,0.4,0.4,0.4,0.7
	c0.1,0.3,0,0.6-0.1,0.8C9.1,8.7,8.9,8.9,8.7,9C8.5,9.2,8.2,9.3,7.9,9.3L7.9,9.3z M18.2,17.4h-2.6v-3.7c0-1-0.4-1.6-1.3-1.6
	c-0.3,0-0.5,0.1-0.8,0.2c-0.2,0.2-0.4,0.4-0.5,0.6C13,13.1,13,13.3,13,13.5v3.9h-2.6c0,0,0-6.6,0-7.2H13v1.1c0.2-0.5,1-1.2,2.3-1.2
	c1.6,0,2.9,1,2.9,3.3L18.2,17.4z"/>
</svg>
