<svg width="292" height="306" viewBox="0 0 292 306" fill="none" xmlns="http://www.w3.org/2000/svg">
<path d="M64.5132 250.472C63.8387 249.885 63.0549 249.434 62.2055 249.143C61.2443 248.835 60.2404 248.677 59.2299 248.673H52.7016V268.658H56.0619V262.213H58.9465C59.9563 262.201 60.9588 262.042 61.9221 261.743C62.7983 261.451 63.6118 261 64.3209 260.414C64.9945 259.828 65.5477 259.119 65.9504 258.326C66.3551 257.399 66.5519 256.397 66.5273 255.388V255.298C66.5318 254.362 66.3708 253.432 66.0516 252.55C65.7068 251.75 65.1805 251.039 64.5132 250.472ZM63.076 255.468C63.1018 255.97 63.0256 256.471 62.8518 256.943C62.6779 257.415 62.41 257.848 62.0638 258.216C61.214 258.912 60.1306 259.269 59.0274 259.215H56.0619V251.811H58.9465C60.044 251.735 61.1296 252.074 61.9829 252.76C62.3601 253.106 62.6486 253.536 62.8245 254.014C63.0005 254.491 63.0589 255.004 62.995 255.508L63.076 255.468Z" fill="white"/>
<path d="M103.389 248.573L95.8993 268.798H99.2596L100.99 264.051H108.865L110.595 268.798H114.148L106.658 248.603L103.389 248.573ZM102.043 261.084L104.927 253.03L107.812 261.084H102.043Z" fill="white"/>
<path d="M158.115 258.905C158.932 257.813 159.337 256.474 159.259 255.118V255.018C159.296 254.173 159.133 253.332 158.783 252.56C158.52 251.842 158.095 251.192 157.538 250.661C156.901 250.006 156.107 249.518 155.23 249.243C154.262 248.881 153.229 248.718 152.194 248.763H144.897V268.748H148.257V261.633H151.708L156.03 268.748H159.866L155.068 260.974C156.251 260.563 157.303 259.849 158.115 258.905ZM151.779 258.715H148.125V251.811H151.82C152.881 251.745 153.933 252.045 154.795 252.66C155.144 252.987 155.416 253.385 155.591 253.827C155.766 254.27 155.84 254.744 155.807 255.218V255.318C155.822 255.79 155.739 256.259 155.565 256.699C155.391 257.138 155.13 257.539 154.795 257.876C153.924 258.471 152.878 258.766 151.82 258.715H151.779Z" fill="white"/>
<path d="M194.299 248.673H190.938V268.668H194.299V248.673Z" fill="white"/>
<path d="M237.79 259.665C237.25 259.177 236.671 258.733 236.059 258.336C235.391 257.956 234.531 257.586 233.66 257.207C232.932 256.989 232.227 256.701 231.555 256.347C231.094 256.132 230.67 255.845 230.3 255.498C230.017 255.208 229.723 255.018 229.632 254.639C229.51 254.34 229.445 254.021 229.44 253.699C229.432 253.389 229.497 253.081 229.631 252.8C229.764 252.519 229.962 252.273 230.209 252.08C230.828 251.583 231.621 251.346 232.415 251.421C233.208 251.433 233.991 251.592 234.723 251.891C235.489 252.283 236.226 252.727 236.929 253.22L238.842 250.662C237.982 249.872 236.97 249.261 235.867 248.863C234.789 248.482 233.652 248.289 232.506 248.293C231.627 248.264 230.749 248.392 229.915 248.673C229.178 248.933 228.493 249.318 227.891 249.812C227.311 250.304 226.85 250.919 226.545 251.611C226.232 252.331 226.07 253.106 226.069 253.889V253.979C226.037 254.695 226.168 255.409 226.454 256.067C226.679 256.7 227.079 257.257 227.608 257.676C228.159 258.162 228.771 258.575 229.43 258.905C230.233 259.338 231.065 259.719 231.919 260.044C232.614 260.279 233.291 260.563 233.944 260.894C234.352 261.105 234.735 261.36 235.087 261.653C235.339 261.857 235.537 262.117 235.664 262.413C235.748 262.691 235.782 262.982 235.766 263.272C235.772 263.617 235.698 263.959 235.549 264.271C235.4 264.583 235.179 264.857 234.905 265.071C234.251 265.586 233.434 265.855 232.598 265.83C231.591 265.882 230.591 265.65 229.713 265.161C228.855 264.68 228.051 264.11 227.314 263.462L225.29 265.92C226.321 266.865 227.527 267.605 228.843 268.098C230.067 268.56 231.368 268.787 232.679 268.768C233.558 268.794 234.436 268.665 235.27 268.388C236.041 268.142 236.758 267.756 237.385 267.249C237.966 266.758 238.426 266.143 238.731 265.45C239.033 264.696 239.195 263.893 239.207 263.082V262.982C239.241 262.328 239.108 261.675 238.822 261.084C238.539 260.57 238.193 260.093 237.79 259.665Z" fill="white"/>
<path d="M76.2336 295.068L74.0474 288.313L71.7903 295.068H64.584L70.4037 299.235L68.2175 306L74.0474 301.823L79.7963 306L77.6101 299.235L83.44 295.068H76.2336Z" fill="#CFA06F"/>
<path d="M112.265 295.068L110.079 288.313L107.822 295.068H100.616L106.446 299.235L104.26 306L110.079 301.823L115.828 306L113.652 299.235L119.472 295.068H112.265Z" fill="#CFA06F"/>
<path d="M148.267 295.068L146.081 288.313L143.824 295.068H136.688L142.437 299.235L140.251 306L146.081 301.823L151.9 306L149.643 299.235L155.473 295.068H148.267Z" fill="#CFA06F"/>
<path d="M184.299 295.068L182.113 288.313L179.855 295.068H172.72L178.55 299.235L176.293 306L182.113 301.823L187.942 306L185.685 299.235L191.505 295.068H184.299Z" fill="#CFA06F"/>
<path d="M220.331 295.068L218.155 288.313L215.968 295.068H208.762L214.582 299.235L212.325 306L218.155 301.823L223.974 306L221.717 299.235L227.547 295.068H220.331Z" fill="#CFA06F"/>
<path d="M52.0437 226.43H30.0805V192.176H26.032C24.9582 192.176 23.9285 192.597 23.1692 193.346C22.41 194.096 21.9835 195.113 21.9835 196.173V221.833C21.9835 222.893 22.41 223.91 23.1692 224.66C23.9285 225.409 24.9582 225.83 26.032 225.83V226.38H0V225.83C1.07373 225.83 2.10349 225.409 2.86274 224.66C3.62198 223.91 4.04852 222.893 4.04852 221.833V161.878C4.04852 160.818 3.62198 159.802 2.86274 159.052C2.10349 158.302 1.07373 157.881 0 157.881L0 157.322H21.9632V191.576H30.0603V157.372H52.0235V157.931C50.9497 157.931 49.92 158.352 49.1607 159.102C48.4015 159.852 47.975 160.868 47.975 161.928V221.883C47.975 222.943 48.4015 223.96 49.1607 224.71C49.92 225.459 50.9497 225.88 52.0235 225.88L52.0437 226.43Z" fill="white"/>
<path d="M100.515 204.676C100.513 206.139 100.371 207.597 100.09 209.033C99.2649 213.175 97.2186 216.985 94.2076 219.982C91.1966 222.98 87.3554 225.032 83.1667 225.88L82.5999 226.02C81.2703 226.302 79.91 226.416 78.5514 226.36H78.268C77.0009 226.381 75.7352 226.267 74.4927 226.02L73.926 225.88C69.053 224.844 64.682 222.202 61.5312 218.389C58.3804 214.575 56.6372 209.817 56.5882 204.896V195.983C56.5946 191.048 58.3154 186.264 61.4634 182.431C64.6115 178.597 68.9961 175.946 73.8855 174.919L74.4523 174.849C75.7829 174.568 77.14 174.427 78.5008 174.429H78.7741C80.0421 174.465 81.305 174.605 82.5493 174.849L83.1161 174.919C87.285 175.81 91.1025 177.876 94.1061 180.867C97.1097 183.857 99.1705 187.643 100.039 191.766C100.321 193.198 100.463 194.654 100.464 196.113L100.515 204.676ZM82.5999 179.405C82.5999 177.267 80.859 174.989 78.5514 174.989C76.2437 174.989 74.5029 177.267 74.5029 179.405V221.374C74.5029 223.512 76.2539 225.791 78.5514 225.791C80.8489 225.791 82.5999 223.512 82.5999 221.374V179.405Z" fill="white"/>
<path d="M134.927 226.43C134.927 226.43 134.927 226.5 125.97 226.43C121.365 226.383 116.962 224.556 113.705 221.342C110.449 218.127 108.598 213.78 108.551 209.233V174.569C110.84 174.574 113.107 174.133 115.223 173.271C117.339 172.408 119.261 171.142 120.88 169.544C122.498 167.946 123.781 166.048 124.655 163.959C125.528 161.87 125.975 159.632 125.97 157.372H126.516V174.569H134.917V175.119H126.516V221.834C126.516 222.894 126.943 223.91 127.702 224.66C128.461 225.41 129.491 225.831 130.565 225.831H134.907L134.927 226.43Z" fill="white"/>
<path d="M183.196 211.841C183.196 214.669 181.586 217.506 179.835 219.645C175.362 224.891 169.481 226.48 162.842 226.41C160.992 226.349 159.147 226.189 157.315 225.93L156.83 225.79C151.915 224.753 147.51 222.081 144.352 218.221C141.194 214.361 139.475 209.548 139.482 204.586V196.093C139.486 193.209 140.074 190.355 141.212 187.699C142.35 185.044 144.014 182.639 146.106 180.627C148.199 178.615 150.677 177.037 153.397 175.984C156.116 174.932 159.021 174.427 161.941 174.499C163.162 174.476 164.381 174.593 165.574 174.848C170.605 175.785 175.145 178.432 178.405 182.329C181.664 186.227 183.438 191.128 183.418 196.182V199.36L157.396 199.01L157.326 221.324C157.34 222.407 157.74 223.45 158.457 224.271C159.173 225.091 160.159 225.636 161.242 225.81C161.706 225.868 162.172 225.892 162.639 225.88C164.805 225.88 173.904 225.74 173.904 222.563C173.927 222.129 173.792 221.702 173.523 221.359C173.253 221.016 172.868 220.78 172.437 220.694C170.792 220.355 169.277 219.566 168.066 218.416C166.855 217.266 165.997 215.803 165.59 214.193C165.183 212.584 165.244 210.894 165.766 209.317C166.287 207.74 167.248 206.341 168.539 205.279C169.83 204.217 171.397 203.535 173.062 203.313C174.727 203.09 176.422 203.336 177.952 204.021C179.482 204.706 180.786 205.803 181.713 207.186C182.641 208.569 183.154 210.182 183.196 211.841ZM157.457 175.378L157.386 198.511H161.435C161.959 198.525 162.482 198.436 162.971 198.249C163.46 198.061 163.907 197.779 164.284 197.419C164.661 197.058 164.961 196.627 165.167 196.151C165.373 195.674 165.481 195.162 165.483 194.644L165.554 179.455C165.561 178.345 165.151 177.272 164.403 176.444C163.655 175.615 162.623 175.089 161.506 174.968C160.141 174.969 158.78 175.113 157.447 175.398L157.457 175.378Z" fill="white"/>
<path d="M213.964 226.43H187.942V225.881C189.016 225.881 190.046 225.459 190.805 224.71C191.564 223.96 191.991 222.944 191.991 221.884V161.929C191.991 160.869 191.564 159.852 190.805 159.102C190.046 158.353 189.016 157.932 187.942 157.932V157.372H209.906V221.834C209.906 222.894 210.332 223.91 211.091 224.66C211.851 225.41 212.88 225.831 213.954 225.831L213.964 226.43Z" fill="white"/>
<path d="M242.78 226.43H216.758V225.881C217.831 225.881 218.861 225.459 219.62 224.71C220.38 223.96 220.806 222.944 220.806 221.884V161.929C220.806 160.869 220.38 159.852 219.62 159.102C218.861 158.353 217.831 157.932 216.758 157.932V157.372H238.721V221.834C238.721 222.894 239.148 223.91 239.907 224.66C240.666 225.41 241.696 225.831 242.769 225.831L242.78 226.43Z" fill="white"/>
<path d="M291.251 204.676C291.249 206.138 291.107 207.597 290.825 209.033C290.003 213.176 287.958 216.987 284.946 219.985C281.935 222.983 278.092 225.034 273.903 225.88L273.346 226.02C272.016 226.301 270.656 226.415 269.297 226.36H269.014C267.747 226.381 266.481 226.267 265.239 226.02L264.682 225.88C259.808 224.844 255.436 222.203 252.283 218.39C249.131 214.576 247.386 209.818 247.334 204.896V195.983C247.347 191.043 249.077 186.257 252.235 182.425C255.392 178.593 259.786 175.947 264.682 174.928L265.239 174.859C266.569 174.578 267.927 174.437 269.287 174.439H269.571C270.839 174.475 272.101 174.616 273.346 174.859L273.903 174.928C278.073 175.818 281.891 177.883 284.895 180.874C287.899 183.864 289.959 187.652 290.825 191.776C291.107 193.208 291.25 194.664 291.251 196.123V204.676ZM273.346 179.405C273.346 177.267 271.595 174.988 269.297 174.988C267 174.988 265.249 177.267 265.249 179.405V221.374C265.249 223.512 267 225.79 269.297 225.79C271.595 225.79 273.346 223.512 273.346 221.374V179.405Z" fill="white"/>
<path d="M238.691 146.06H231.606C231.519 125.033 223.174 104.859 208.327 89.7825C193.66 74.5634 173.859 65.1693 152.66 63.3723L153.247 56.3776C201.13 60.3346 238.691 99.715 238.691 146.06Z" fill="#CFA06F"/>
<path d="M63.4909 146.06H56.406C56.406 101.024 92.8427 61.7436 139.401 56.6474L140.19 63.6421C97.1645 68.3086 63.4909 104.531 63.4909 146.06Z" fill="#CFA06F"/>
<path d="M149.218 18.0464H149.309C149.688 18.0464 150.051 17.898 150.319 17.6338C150.586 17.3695 150.737 17.0112 150.737 16.6375V7.81413C150.737 7.44046 150.586 7.08209 150.319 6.81786C150.051 6.55363 149.688 6.40519 149.309 6.40519H149.178V2.77791C149.178 2.04117 148.881 1.33459 148.354 0.813632C147.826 0.292672 147.11 0 146.364 0C145.618 0 144.902 0.292672 144.375 0.813632C143.847 1.33459 143.55 2.04117 143.55 2.77791V6.40519H143.399C143.213 6.4065 143.029 6.44398 142.857 6.51549C142.686 6.58701 142.53 6.69115 142.4 6.82199C142.269 6.95282 142.166 7.10778 142.096 7.27801C142.026 7.44824 141.99 7.63042 141.992 7.81413V16.6375C141.99 16.8212 142.026 17.0034 142.096 17.1736C142.166 17.3439 142.269 17.4988 142.4 17.6296C142.53 17.7605 142.686 17.8646 142.857 17.9361C143.029 18.0077 143.213 18.0451 143.399 18.0464H143.51C142.326 92.9302 92.5998 146.06 92.5998 146.06H114.371C114.371 137.67 117.747 129.623 123.756 123.69C129.766 117.757 137.916 114.424 146.415 114.424C154.913 114.424 163.064 117.757 169.073 123.69C175.083 129.623 178.459 137.67 178.459 146.06H200.179C200.179 146.06 150.403 92.9302 149.218 18.0464ZM146.364 48.2438C147.909 57.9985 150.279 67.6083 153.449 76.9722H139.279C142.459 67.611 144.829 58.0004 146.364 48.2438ZM127.883 106.36C131.516 99.0356 134.968 91.5912 138.196 84.0968H154.532C157.751 91.5912 161.212 99.0856 164.856 106.36H127.883Z" fill="white"/>
</svg>
