<svg width="57" height="61" viewBox="0 0 57 61" fill="none" xmlns="http://www.w3.org/2000/svg">
<g clip-path="url(#clip0_25_44)">
<path d="M12.6257 49.9306C12.4937 49.8137 12.3403 49.7237 12.1741 49.6657C11.9859 49.6044 11.7895 49.5728 11.5917 49.5721H10.3141V53.556H10.9717V52.2712H11.5363C11.7339 52.2687 11.9301 52.2372 12.1186 52.1776C12.2901 52.1193 12.4493 52.0295 12.5881 51.9126C12.7199 51.7957 12.8282 51.6543 12.907 51.4963C12.9862 51.3116 13.0247 51.1118 13.0199 50.9107V50.8928C13.0208 50.7061 12.9892 50.5207 12.9268 50.345C12.8593 50.1855 12.7563 50.0437 12.6257 49.9306ZM12.3444 50.9266C12.3495 51.0266 12.3346 51.1266 12.3005 51.2207C12.2665 51.3148 12.2141 51.4011 12.1463 51.4744C11.98 51.6133 11.768 51.6843 11.5521 51.6736H10.9717V50.1976H11.5363C11.751 50.1825 11.9635 50.2501 12.1305 50.3868C12.2043 50.4558 12.2608 50.5414 12.2952 50.6367C12.3297 50.7319 12.3411 50.834 12.3286 50.9346L12.3444 50.9266Z" fill="white"/>
<path d="M20.2341 49.5522L18.7682 53.5839H19.4259L19.7646 52.6377H21.3057L21.6444 53.5839H22.3397L20.8739 49.5581L20.2341 49.5522ZM19.9706 52.0461L20.5351 50.4406L21.0997 52.0461H19.9706Z" fill="white"/>
<path d="M30.9443 51.6118C31.1043 51.3942 31.1834 51.1271 31.1681 50.8569V50.837C31.1755 50.6686 31.1436 50.5008 31.075 50.3469C31.0237 50.2037 30.9403 50.0742 30.8314 49.9685C30.7067 49.8378 30.5514 49.7405 30.3798 49.6856C30.1902 49.6135 29.988 49.581 29.7855 49.59H28.3574V53.5739H29.015V52.1556H29.6905L30.5363 53.5739H31.287L30.3481 52.0242C30.5796 51.9422 30.7854 51.7999 30.9443 51.6118ZM29.7043 51.574H28.9892V50.1975H29.7122C29.92 50.1845 30.1258 50.2444 30.2946 50.3669C30.3629 50.432 30.416 50.5114 30.4503 50.5996C30.4845 50.6877 30.499 50.7824 30.4927 50.8768V50.8967C30.4955 50.9908 30.4794 51.0844 30.4453 51.172C30.4113 51.2596 30.36 51.3394 30.2946 51.4067C30.1241 51.5253 29.9194 51.5841 29.7122 51.574H29.7043Z" fill="white"/>
<path d="M38.0257 49.5721H37.3681V53.558H38.0257V49.5721Z" fill="white"/>
<path d="M46.5373 51.7633C46.4316 51.666 46.3183 51.5774 46.1986 51.4983C46.0679 51.4226 45.8995 51.3489 45.7291 51.2732C45.5866 51.2298 45.4486 51.1724 45.3171 51.1019C45.2268 51.059 45.1439 51.0019 45.0715 50.9326C45.016 50.8748 44.9586 50.837 44.9408 50.7613C44.9168 50.7018 44.9041 50.6383 44.9031 50.5741C44.9016 50.5122 44.9144 50.4508 44.9405 50.3948C44.9667 50.3388 45.0054 50.2897 45.0537 50.2514C45.1748 50.1522 45.33 50.1049 45.4855 50.1199C45.6406 50.1223 45.7938 50.154 45.9371 50.2135C46.087 50.2916 46.2313 50.3802 46.3689 50.4784L46.7433 49.9685C46.5749 49.8112 46.3769 49.6893 46.161 49.6099C45.95 49.534 45.7274 49.4956 45.5033 49.4964C45.3311 49.4905 45.1593 49.5161 44.9962 49.5721C44.852 49.6238 44.7179 49.7007 44.6001 49.7992C44.4864 49.8971 44.3964 50.0197 44.3366 50.1577C44.2753 50.3012 44.2437 50.4557 44.2435 50.6119V50.6298C44.2371 50.7725 44.2628 50.9149 44.3188 51.0462C44.3628 51.1722 44.441 51.2833 44.5446 51.3669C44.6525 51.4636 44.7723 51.546 44.9012 51.6119C45.0585 51.6982 45.2213 51.774 45.3884 51.839C45.5244 51.8857 45.6568 51.9423 45.7846 52.0083C45.8644 52.0504 45.9395 52.1012 46.0084 52.1597C46.0576 52.2003 46.0963 52.2522 46.1213 52.3111C46.1377 52.3666 46.1444 52.4245 46.1412 52.4824C46.1425 52.5511 46.128 52.6193 46.0987 52.6815C46.0695 52.7437 46.0264 52.7982 45.9728 52.8409C45.8448 52.9436 45.6848 52.9972 45.5212 52.9923C45.3242 53.0027 45.1284 52.9564 44.9566 52.8588C44.7886 52.763 44.6313 52.6495 44.4872 52.5202L44.091 53.0102C44.2928 53.1987 44.5289 53.3461 44.7863 53.4445C45.0258 53.5365 45.2806 53.5818 45.537 53.5779C45.7092 53.5832 45.8809 53.5575 46.0441 53.5023C46.195 53.4533 46.3354 53.3762 46.4581 53.2752C46.5717 53.1772 46.6618 53.0546 46.7215 52.9166C46.7807 52.7662 46.8123 52.6063 46.8146 52.4445V52.4246C46.8213 52.2941 46.7954 52.164 46.7394 52.0461C46.684 51.9437 46.6162 51.8487 46.5373 51.7633Z" fill="white"/>
<path d="M14.9195 58.8208L14.4917 57.4742L14.0499 58.8208H12.6396L13.7786 59.6514L13.3507 61L14.4917 60.1673L15.6168 61L15.1889 59.6514L16.3299 58.8208H14.9195Z" fill="white"/>
<path d="M21.9712 58.8208L21.5433 57.4742L21.1016 58.8208H19.6913L20.8322 59.6514L20.4044 61L21.5433 60.1673L22.6685 61L22.2426 59.6514L23.3815 58.8208H21.9712Z" fill="white"/>
<path d="M29.017 58.8208L28.5891 57.4742L28.1474 58.8208H26.7509L27.876 59.6514L27.4482 61L28.5891 60.1673L29.7281 61L29.2864 59.6514L30.4273 58.8208H29.017Z" fill="white"/>
<path d="M36.0687 58.8208L35.6408 57.4742L35.1991 58.8208H33.8026L34.9436 59.6514L34.5018 61L35.6408 60.1673L36.7818 61L36.34 59.6514L37.479 58.8208H36.0687Z" fill="white"/>
<path d="M43.1204 58.8208L42.6945 57.4742L42.2667 58.8208H40.8563L41.9953 59.6514L41.5536 61L42.6945 60.1673L43.8335 61L43.3918 59.6514L44.5327 58.8208H43.1204Z" fill="white"/>
<path d="M10.1854 45.138H5.88699V38.3095H5.09466C4.88452 38.3095 4.68299 38.3934 4.5344 38.5429C4.38581 38.6923 4.30233 38.895 4.30233 39.1063V44.2216C4.30233 44.433 4.38581 44.6356 4.5344 44.7851C4.68299 44.9345 4.88452 45.0184 5.09466 45.0184V45.128H0V45.0184C0.210138 45.0184 0.41167 44.9345 0.56026 44.7851C0.70885 44.6356 0.792327 44.433 0.792327 44.2216V32.2698C0.792327 32.0585 0.70885 31.8559 0.56026 31.7064C0.41167 31.557 0.210138 31.4731 0 31.4731L0 31.3615H4.29837V38.19H5.88303V31.3715H10.1814V31.483C9.97126 31.483 9.76973 31.567 9.62114 31.7164C9.47255 31.8658 9.38907 32.0685 9.38907 32.2798V44.2316C9.38907 44.4429 9.47255 44.6456 9.62114 44.795C9.76973 44.9444 9.97126 45.0284 10.1814 45.0284L10.1854 45.138Z" fill="white"/>
<path d="M19.6715 40.8014C19.6712 41.0929 19.6434 41.3838 19.5883 41.6699C19.4269 42.4957 19.0265 43.2551 18.4372 43.8526C17.8479 44.4502 17.0962 44.8592 16.2764 45.0284L16.1655 45.0563C15.9053 45.1124 15.639 45.1351 15.3731 45.124H15.3177C15.0697 45.1282 14.822 45.1055 14.5788 45.0563L14.4679 45.0284C13.5142 44.8218 12.6588 44.2952 12.0422 43.535C11.4255 42.7748 11.0844 41.8263 11.0748 40.8453V39.0684C11.076 38.0846 11.4128 37.131 12.0289 36.3668C12.645 35.6026 13.5031 35.0741 14.46 34.8694L14.5709 34.8554C14.8313 34.7994 15.0969 34.7714 15.3632 34.7718H15.4167C15.6649 34.7788 15.912 34.8068 16.1556 34.8554L16.2665 34.8694C17.0824 35.0471 17.8295 35.459 18.4173 36.0551C19.0051 36.6512 19.4085 37.4059 19.5784 38.2278C19.6336 38.5133 19.6614 38.8035 19.6616 39.0943L19.6715 40.8014ZM16.1655 35.7638C16.1655 35.3375 15.8248 34.8833 15.3731 34.8833C14.9215 34.8833 14.5808 35.3375 14.5808 35.7638V44.13C14.5808 44.5563 14.9235 45.0105 15.3731 45.0105C15.8228 45.0105 16.1655 44.5563 16.1655 44.13V35.7638Z" fill="white"/>
<path d="M26.4063 45.138C26.4063 45.138 26.4063 45.1519 24.6532 45.138C23.752 45.1286 22.8903 44.7645 22.253 44.1236C21.6157 43.4827 21.2535 42.6161 21.2443 41.7098V34.7997C21.6922 34.8007 22.136 34.7128 22.5501 34.5409C22.9641 34.3689 23.3403 34.1165 23.6571 33.7979C23.9739 33.4794 24.2249 33.101 24.3959 32.6846C24.5668 32.2682 24.6543 31.822 24.6532 31.3715H24.7602V34.7997H26.4043V34.9092H24.7602V44.2217C24.7602 44.433 24.8437 44.6357 24.9923 44.7851C25.1409 44.9345 25.3424 45.0185 25.5525 45.0185H26.4023L26.4063 45.138Z" fill="white"/>
<path d="M35.8528 42.2297C35.8528 42.7934 35.5378 43.3591 35.1951 43.7854C34.3196 44.8312 33.1688 45.1479 31.8693 45.134C31.5074 45.1219 31.1463 45.09 30.7878 45.0384L30.6927 45.0105C29.7309 44.8037 28.8689 44.271 28.2508 43.5016C27.6328 42.7322 27.2963 41.7726 27.2976 40.7835V39.0903C27.2985 38.5155 27.4136 37.9467 27.6363 37.4172C27.8589 36.8878 28.1846 36.4084 28.5941 36.0074C29.0036 35.6063 29.4887 35.2917 30.0209 35.0819C30.5531 34.8721 31.1216 34.7714 31.693 34.7857C31.932 34.7811 32.1706 34.8045 32.4042 34.8554C33.3887 35.0421 34.2772 35.5698 34.9151 36.3467C35.5531 37.1236 35.9003 38.1007 35.8963 39.1083V39.7417L30.8037 39.672L30.7898 44.1201C30.7926 44.336 30.871 44.544 31.0112 44.7076C31.1514 44.8712 31.3444 44.9798 31.5564 45.0145C31.647 45.026 31.7384 45.0307 31.8297 45.0284C32.2536 45.0284 34.0344 45.0005 34.0344 44.3671C34.0389 44.2806 34.0124 44.1955 33.9597 44.1271C33.9069 44.0587 33.8315 44.0117 33.7472 43.9946C33.4253 43.9271 33.1288 43.7697 32.8918 43.5405C32.6548 43.3113 32.4869 43.0195 32.4072 42.6987C32.3276 42.3779 32.3395 42.041 32.4416 41.7266C32.5437 41.4123 32.7318 41.1333 32.9844 40.9216C33.237 40.7099 33.5438 40.574 33.8696 40.5297C34.1955 40.4853 34.5271 40.5343 34.8266 40.6708C35.1261 40.8074 35.3812 41.0261 35.5627 41.3018C35.7442 41.5775 35.8447 41.8991 35.8528 42.2297ZM30.8155 34.961L30.8017 39.5724H31.594C31.6967 39.5753 31.7989 39.5576 31.8947 39.5202C31.9904 39.4828 32.0778 39.4266 32.1516 39.3547C32.2254 39.2829 32.2842 39.197 32.3245 39.102C32.3648 39.007 32.3858 38.9048 32.3863 38.8015L32.4002 35.7737C32.4015 35.5525 32.3212 35.3386 32.1749 35.1734C32.0286 35.0083 31.8266 34.9035 31.6079 34.8793C31.3408 34.8794 31.0745 34.9081 30.8136 34.965L30.8155 34.961Z" fill="white"/>
<path d="M41.8745 45.138H36.7818V45.0284C36.9919 45.0284 37.1935 44.9445 37.3421 44.795C37.4906 44.6456 37.5741 44.4429 37.5741 44.2316V32.2798C37.5741 32.0685 37.4906 31.8658 37.3421 31.7164C37.1935 31.567 36.9919 31.483 36.7818 31.483V31.3715H41.0802V44.2217C41.0802 44.433 41.1636 44.6357 41.3122 44.7851C41.4608 44.9345 41.6624 45.0185 41.8725 45.0185L41.8745 45.138Z" fill="white"/>
<path d="M47.5139 45.138H42.4212V45.0284C42.6313 45.0284 42.8329 44.9445 42.9815 44.795C43.1301 44.6456 43.2135 44.4429 43.2135 44.2316V32.2798C43.2135 32.0685 43.1301 31.8658 42.9815 31.7164C42.8329 31.567 42.6313 31.483 42.4212 31.483V31.3715H46.7196V44.2217C46.7196 44.433 46.8031 44.6357 46.9516 44.7851C47.1002 44.9345 47.3018 45.0185 47.5119 45.0185L47.5139 45.138Z" fill="white"/>
<path d="M57 40.8015C56.9997 41.093 56.9718 41.3838 56.9168 41.67C56.7559 42.4959 56.3556 43.2556 55.7662 43.8532C55.1769 44.4508 54.4248 44.8597 53.6049 45.0284L53.4959 45.0563C53.2357 45.1122 52.9695 45.135 52.7036 45.124H52.6481C52.4001 45.1282 52.1524 45.1055 51.9093 45.0563L51.8003 45.0284C50.8465 44.8219 49.9908 44.2954 49.3738 43.5352C48.7568 42.775 48.4153 41.8265 48.4052 40.8453V39.0685C48.4078 38.0837 48.7463 37.1297 49.3643 36.3658C49.9822 35.6019 50.8421 35.0743 51.8003 34.8714L51.9093 34.8574C52.1697 34.8014 52.4353 34.7734 52.7016 34.7738H52.7571C53.0052 34.7811 53.2524 34.8091 53.4959 34.8574L53.6049 34.8714C54.421 35.0487 55.1683 35.4604 55.7562 36.0566C56.3441 36.6527 56.7473 37.4077 56.9168 38.2298C56.9719 38.5153 56.9998 38.8055 57 39.0963V40.8015ZM53.4959 35.7638C53.4959 35.3375 53.1532 34.8833 52.7036 34.8833C52.2539 34.8833 51.9113 35.3375 51.9113 35.7638V44.13C51.9113 44.5563 52.2539 45.0105 52.7036 45.0105C53.1532 45.0105 53.4959 44.5563 53.4959 44.13V35.7638Z" fill="white"/>
<path d="M46.7136 29.1166H45.327C45.31 24.9249 43.6768 20.9032 40.7711 17.8978C37.9008 14.8639 34.0256 12.9913 29.8766 12.6331L29.9915 11.2387C39.3628 12.0275 46.7136 19.8778 46.7136 29.1166Z" fill="white"/>
<path d="M12.4257 29.1166H11.0391C11.0391 20.1388 18.1701 12.3084 27.2818 11.2924L27.4363 12.6868C19.0159 13.6171 12.4257 20.838 12.4257 29.1166Z" fill="white"/>
<path d="M29.2032 3.59749H29.221C29.2951 3.59749 29.3661 3.5679 29.4185 3.51523C29.4709 3.46255 29.5003 3.39112 29.5003 3.31662V1.55772C29.5003 1.48323 29.4709 1.41179 29.4185 1.35911C29.3661 1.30644 29.2951 1.27685 29.221 1.27685H29.1953V0.553767C29.1953 0.406899 29.1372 0.266046 29.034 0.162195C28.9307 0.0583431 28.7906 0 28.6446 0C28.4986 0 28.3585 0.0583431 28.2552 0.162195C28.1519 0.266046 28.0939 0.406899 28.0939 0.553767V1.27685H28.0642C28.0278 1.27711 27.9918 1.28458 27.9582 1.29884C27.9247 1.3131 27.8943 1.33386 27.8687 1.35994C27.8431 1.38602 27.8229 1.41691 27.8092 1.45084C27.7955 1.48478 27.7886 1.5211 27.7889 1.55772V3.31662C27.7886 3.35325 27.7955 3.38956 27.8092 3.4235C27.8229 3.45743 27.8431 3.48832 27.8687 3.51441C27.8943 3.54049 27.9247 3.56125 27.9582 3.5755C27.9918 3.58976 28.0278 3.59723 28.0642 3.59749H28.086C27.8543 18.5253 18.1225 29.1166 18.1225 29.1166H22.3832C22.3832 27.444 23.044 25.8399 24.22 24.6572C25.3961 23.4745 26.9913 22.81 28.6545 22.81C30.3177 22.81 31.9129 23.4745 33.089 24.6572C34.265 25.8399 34.9258 27.444 34.9258 29.1166H39.1766C39.1766 29.1166 29.4349 18.5253 29.2032 3.59749ZM28.6446 9.61722C28.9469 11.5618 29.4107 13.4775 30.0312 15.3441H27.258C27.8804 13.478 28.3442 11.5622 28.6446 9.61722ZM25.0276 21.2025C25.7387 19.7424 26.4142 18.2584 27.0461 16.7644H30.2431C30.873 18.2584 31.5505 19.7523 32.2636 21.2025H25.0276Z" fill="white"/>
</g>
<defs>
<clipPath id="clip0_25_44">
<rect width="57" height="61" fill="white"/>
</clipPath>
</defs>
</svg>
