<svg width="32" height="24" viewBox="0 0 32 24" fill="none" xmlns="http://www.w3.org/2000/svg">
<g clip-path="url(#clip0_32_463)">
<path d="M30.18 23.9H1.82C1.33669 23.8982 0.873785 23.705 0.532659 23.3626C0.191533 23.0203 -3.21877e-06 22.5566 0 22.0733L0 1.82C0.0017565 1.33785 0.19407 0.875942 0.535006 0.535006C0.875942 0.19407 1.33785 0.0017565 1.82 0L30.18 0C30.6622 0.0017565 31.1241 0.19407 31.465 0.535006C31.8059 0.875942 31.9982 1.33785 32 1.82V22.0733C32 22.5566 31.8085 23.0203 31.4673 23.3626C31.1262 23.705 30.6633 23.8982 30.18 23.9ZM1.82 1.62C1.76749 1.62167 1.71758 1.64328 1.68043 1.68043C1.64328 1.71758 1.62167 1.76749 1.62 1.82V22.0733C1.61997 22.127 1.64083 22.1786 1.67816 22.2172C1.71548 22.2557 1.76635 22.2783 1.82 22.28H30.18C30.2336 22.2783 30.2845 22.2557 30.3218 22.2172C30.3592 22.1786 30.38 22.127 30.38 22.0733V1.82C30.3783 1.76749 30.3567 1.71758 30.3196 1.68043C30.2824 1.64328 30.2325 1.62167 30.18 1.62H1.82ZM19.04 17.82H6.88667C6.77412 17.8302 6.66068 17.8169 6.55358 17.7808C6.44647 17.7448 6.34806 17.6868 6.26462 17.6106C6.18117 17.5343 6.11452 17.4416 6.06892 17.3382C6.02332 17.2348 5.99977 17.123 5.99977 17.01C5.99977 16.897 6.02332 16.7852 6.06892 16.6818C6.11452 16.5784 6.18117 16.4857 6.26462 16.4094C6.34806 16.3332 6.44647 16.2752 6.55358 16.2392C6.66068 16.2031 6.77412 16.1898 6.88667 16.2H19.04C19.2421 16.2184 19.4301 16.3116 19.567 16.4615C19.7039 16.6114 19.7798 16.807 19.7798 17.01C19.7798 17.213 19.7039 17.4086 19.567 17.5585C19.4301 17.7084 19.2421 17.8016 19.04 17.82ZM11.9467 13.7733H6.88667C6.77412 13.7836 6.66068 13.7702 6.55358 13.7341C6.44647 13.6981 6.34806 13.6401 6.26462 13.5639C6.18117 13.4877 6.11452 13.3949 6.06892 13.2915C6.02332 13.1881 5.99977 13.0763 5.99977 12.9633C5.99977 12.8503 6.02332 12.7386 6.06892 12.6352C6.11452 12.5318 6.18117 12.439 6.26462 12.3628C6.34806 12.2866 6.44647 12.2286 6.55358 12.1925C6.66068 12.1565 6.77412 12.1431 6.88667 12.1533H11.9467C12.0592 12.1431 12.1727 12.1565 12.2798 12.1925C12.3869 12.2286 12.4853 12.2866 12.5687 12.3628C12.6522 12.439 12.7188 12.5318 12.7644 12.6352C12.81 12.7386 12.8336 12.8503 12.8336 12.9633C12.8336 13.0763 12.81 13.1881 12.7644 13.2915C12.7188 13.3949 12.6522 13.4877 12.5687 13.5639C12.4853 13.6401 12.3869 13.6981 12.2798 13.7341C12.1727 13.7702 12.0592 13.7836 11.9467 13.7733ZM24.1 10.7333C23.538 10.7333 22.9887 10.5666 22.5215 10.2542C22.0543 9.94188 21.6903 9.49794 21.4756 8.97861C21.2608 8.45928 21.2049 7.88791 21.3151 7.33682C21.4252 6.78573 21.6963 6.27971 22.0942 5.88279C22.492 5.48588 22.9987 5.21592 23.55 5.10709C24.1014 4.99826 24.6726 5.05546 25.1915 5.27143C25.7103 5.48741 26.1534 5.85246 26.4646 6.32037C26.7759 6.78828 26.9413 7.33802 26.94 7.9C26.9382 8.65206 26.6382 9.37271 26.1058 9.90388C25.5734 10.435 24.8521 10.7333 24.1 10.7333ZM24.1 6.68667C23.8609 6.69061 23.6283 6.76511 23.4314 6.9008C23.2346 7.0365 23.0822 7.22734 22.9934 7.44937C22.9046 7.67139 22.8834 7.9147 22.9325 8.14873C22.9815 8.38276 23.0986 8.59708 23.2691 8.76478C23.4395 8.93247 23.6557 9.04606 23.8905 9.09128C24.1254 9.13649 24.3683 9.11133 24.5888 9.01893C24.8094 8.92654 24.9977 8.77104 25.1302 8.57197C25.2626 8.37289 25.3333 8.13912 25.3333 7.9C25.336 7.73729 25.306 7.5757 25.245 7.42484C25.1839 7.27399 25.0932 7.13695 24.9781 7.02188C24.8631 6.90681 24.726 6.81606 24.5752 6.75504C24.4243 6.69402 24.2627 6.66396 24.1 6.66667V6.68667Z" fill="white"/>
</g>
<defs>
<clipPath id="clip0_32_463">
<rect width="32" height="23.9" fill="white"/>
</clipPath>
</defs>
</svg>
