<svg width="33" height="32" viewBox="0 0 33 32" fill="none" xmlns="http://www.w3.org/2000/svg">
<path fill-rule="evenodd" clip-rule="evenodd" d="M24.4837 1.37366C25.3608 0.49656 26.5496 0.00264197 27.79 0C29.0321 -2.82351e-06 30.2235 0.492748 31.1028 1.37013C31.9821 2.24752 32.4774 3.43787 32.48 4.68V7.36C32.48 7.5377 32.4094 7.70811 32.2838 7.83376C32.1581 7.95941 31.9877 8.03 31.81 8.03C31.6323 8.03 31.4619 7.95941 31.3362 7.83376C31.2106 7.70811 31.14 7.5377 31.14 7.36V4.68C31.0932 3.82448 30.7204 3.0194 30.0982 2.43033C29.476 1.84125 28.6518 1.51296 27.795 1.51296C26.9382 1.51296 26.114 1.84125 25.4918 2.43033C24.8696 3.0194 24.4968 3.82448 24.45 4.68V26.09C24.45 26.2677 24.3794 26.4381 24.2538 26.5638C24.1281 26.6894 23.9577 26.76 23.78 26.76C23.6023 26.76 23.4319 26.6894 23.3062 26.5638C23.1806 26.4381 23.11 26.2677 23.11 26.09V21.4H8.37V26.09C8.37 26.2677 8.29941 26.4381 8.17376 26.5638C8.04811 26.6894 7.87769 26.76 7.7 26.76C7.5223 26.76 7.35189 26.6894 7.22624 26.5638C7.10059 26.4381 7.03 26.2677 7.03 26.09V4.68C7.03 3.43879 7.52307 2.24841 8.40074 1.37074C9.27841 0.49307 10.4688 0 11.71 0C12.9512 0 14.1416 0.49307 15.0193 1.37074C15.8969 2.24841 16.39 3.43879 16.39 4.68V7.36C16.39 7.5377 16.3194 7.70811 16.1938 7.83376C16.0681 7.95941 15.8977 8.03 15.72 8.03C15.6325 8.03001 15.5458 8.01261 15.4651 7.97882C15.3844 7.94503 15.3112 7.89552 15.2497 7.83317C15.1883 7.77082 15.1399 7.69688 15.1073 7.61564C15.0748 7.53441 15.0587 7.44751 15.06 7.36V4.68C15.0132 3.82448 14.6404 3.0194 14.0182 2.43033C13.396 1.84125 12.5718 1.51296 11.715 1.51296C10.8582 1.51296 10.034 1.84125 9.41179 2.43033C8.78961 3.0194 8.41679 3.82448 8.37 4.68V12H23.11V4.68C23.1126 3.4396 23.6066 2.25076 24.4837 1.37366ZM8.37 13.38V20.07H23.11V13.38H8.37ZM30.1583 28.5894C30.6753 28.3447 31.2381 28.212 31.81 28.2H31.86C32.0377 28.2 32.2081 28.2706 32.3338 28.3963C32.4594 28.5219 32.53 28.6923 32.53 28.87C32.53 29.0477 32.4594 29.2181 32.3338 29.3438C32.2081 29.4694 32.0377 29.54 31.86 29.54C31.4566 29.5424 31.0586 29.6331 30.694 29.8059C30.3295 29.9787 30.0072 30.2293 29.75 30.54C29.3803 30.9849 28.9171 31.3428 28.3934 31.5885C27.8698 31.8342 27.2984 31.9615 26.72 31.9615C26.1416 31.9615 25.5702 31.8342 25.0466 31.5885C24.5229 31.3428 24.0597 30.9849 23.69 30.54C23.4437 30.2167 23.126 29.9546 22.7617 29.7742C22.3975 29.5938 21.9965 29.4999 21.59 29.4999C21.1835 29.4999 20.7825 29.5938 20.4183 29.7742C20.054 29.9546 19.7363 30.2167 19.49 30.54C19.1212 30.9847 18.659 31.3425 18.1361 31.5882C17.6133 31.8338 17.0427 31.9612 16.465 31.9612C15.8873 31.9612 15.3168 31.8338 14.7939 31.5882C14.271 31.3425 13.8088 30.9847 13.44 30.54C13.1843 30.23 12.8637 29.9798 12.5009 29.8071C12.1381 29.6343 11.7418 29.5431 11.34 29.54C10.9382 29.5431 10.5419 29.6343 10.1791 29.8071C9.81626 29.9798 9.49571 30.23 9.24 30.54C8.86819 30.9747 8.40874 31.3259 7.89174 31.5706C7.37474 31.8153 6.81187 31.948 6.24 31.96C5.66745 31.9518 5.10333 31.8208 4.58577 31.5759C4.06821 31.3309 3.60928 30.9776 3.24 30.54C2.98429 30.23 2.66375 29.9798 2.30093 29.8071C1.93811 29.6343 1.54184 29.5431 1.14 29.54C0.962306 29.54 0.791889 29.4694 0.66624 29.3438C0.54059 29.2181 0.470001 29.0477 0.470001 28.87C0.470001 28.6923 0.54059 28.5219 0.66624 28.3963C0.791889 28.2706 0.962306 28.2 1.14 28.2C1.71255 28.2082 2.27668 28.3392 2.79424 28.5842C3.3118 28.8291 3.77073 29.1824 4.14 29.62C4.39571 29.93 4.71626 30.1802 5.07907 30.353C5.44189 30.5257 5.83816 30.6169 6.24 30.62C6.6422 30.619 7.03915 30.5287 7.40228 30.3558C7.76541 30.1829 8.08567 29.9316 8.34 29.62C8.71181 29.1854 9.17127 28.8342 9.68826 28.5894C10.2053 28.3447 10.7681 28.212 11.34 28.2C11.9126 28.2082 12.4767 28.3392 12.9942 28.5842C13.5118 28.8291 13.9707 29.1824 14.34 29.62C14.5957 29.93 14.9163 30.1802 15.2791 30.353C15.6419 30.5257 16.0382 30.6169 16.44 30.62C16.8422 30.619 17.2392 30.5287 17.6023 30.3558C17.9654 30.1829 18.2857 29.9316 18.54 29.62C18.9097 29.1752 19.3729 28.8172 19.8966 28.5715C20.4202 28.3258 20.9916 28.1985 21.57 28.1985C22.1484 28.1985 22.7198 28.3258 23.2434 28.5715C23.7671 28.8172 24.2303 29.1752 24.6 29.62C24.8474 29.9435 25.1659 30.2056 25.531 30.386C25.8961 30.5664 26.2978 30.6602 26.705 30.6602C27.1122 30.6602 27.5139 30.5664 27.879 30.386C28.2441 30.2056 28.5626 29.9435 28.81 29.62C29.1818 29.1854 29.6413 28.8342 30.1583 28.5894Z" fill="#0B3B2C"/>
</svg>
