<svg width="41" height="32" viewBox="0 0 41 32" fill="none" xmlns="http://www.w3.org/2000/svg">
<path fill-rule="evenodd" clip-rule="evenodd" d="M20.5 31.9873C20.4059 32.0042 20.3096 32.0042 20.2156 31.9873C15.4726 30.4121 11.8845 30.3538 3.44181 30.2166L3.04912 30.2102H0.952179C0.716525 30.2102 0.490523 30.1166 0.32389 29.9499C0.157258 29.7833 0.0636444 29.5573 0.0636444 29.3217V0.888535C0.0636444 0.652881 0.157258 0.426879 0.32389 0.260246C0.490523 0.0936133 0.716525 0 0.952179 0C11.0331 0 13.2164 0 19.6356 1.56361H21.3643C27.7835 0 29.9668 0 40.0477 0C40.2834 0 40.5094 0.0936133 40.676 0.260246C40.8426 0.426879 40.9363 0.652881 40.9363 0.888535V29.3217C40.938 29.4409 40.9152 29.5591 40.8694 29.6692C40.8235 29.7792 40.7556 29.8787 40.6697 29.9614C40.5028 30.1223 40.2796 30.2116 40.0477 30.2102C29.4742 30.2102 25.9733 30.2102 20.7843 31.9873C20.6903 32.0042 20.594 32.0042 20.5 31.9873ZM21.3885 29.9342V3.37946C27.6468 1.77707 29.5965 1.77707 39.1592 1.77707V28.4331C29.8703 28.4331 26.1142 28.5277 21.3885 29.9342ZM20.5 30.2102C20.7296 30.136 20.9563 30.0649 21.1806 29.9967H19.8418C20.0589 30.0649 20.2782 30.136 20.5 30.2102ZM19.6114 3.37946V29.9253C15.0453 28.5273 11.3007 28.4331 3.06689 28.4331H1.84071V1.77707C11.4034 1.77707 13.3531 1.77707 19.6114 3.37946ZM6.28339 10.449H15.1687C15.4044 10.449 15.6304 10.3554 15.797 10.1887C15.9637 10.0221 16.0573 9.79608 16.0573 9.56043C16.0573 9.32477 15.9637 9.09877 15.797 8.93214C15.6304 8.76551 15.4044 8.67189 15.1687 8.67189H6.28339C6.04774 8.67189 5.82173 8.76551 5.6551 8.93214C5.48847 9.09877 5.39486 9.32477 5.39486 9.56043C5.39486 9.79608 5.48847 10.0221 5.6551 10.1887C5.82173 10.3554 6.04774 10.449 6.28339 10.449ZM15.1687 15.7802H6.28339C6.04774 15.7802 5.82173 15.6866 5.6551 15.5199C5.48847 15.3533 5.39486 15.1273 5.39486 14.8916C5.39486 14.656 5.48847 14.43 5.6551 14.2633C5.82173 14.0967 6.04774 14.0031 6.28339 14.0031H15.1687C15.4044 14.0031 15.6304 14.0967 15.797 14.2633C15.9637 14.43 16.0573 14.656 16.0573 14.8916C16.0573 15.1273 15.9637 15.3533 15.797 15.5199C15.6304 15.6866 15.4044 15.7802 15.1687 15.7802ZM6.28339 21.1114H15.1687C15.4044 21.1114 15.6304 21.0178 15.797 20.8511C15.9637 20.6845 16.0573 20.4585 16.0573 20.2228C16.0573 19.9872 15.9637 19.7612 15.797 19.5946C15.6304 19.4279 15.4044 19.3343 15.1687 19.3343H6.28339C6.04774 19.3343 5.82173 19.4279 5.6551 19.5946C5.48847 19.7612 5.39486 19.9872 5.39486 20.2228C5.39486 20.4585 5.48847 20.6845 5.6551 20.8511C5.82173 21.0178 6.04774 21.1114 6.28339 21.1114ZM32.9394 15.7802C32.2339 15.7755 31.5586 15.4932 31.0597 14.9943C30.5608 14.4954 30.2785 13.8201 30.2738 13.1146V9.56045C30.2785 8.38526 30.7487 7.25981 31.5813 6.43048C32.414 5.60116 33.5413 5.13553 34.7165 5.13554C34.9522 5.13554 35.1782 5.22916 35.3448 5.39579C35.5114 5.56242 35.605 5.78842 35.605 6.02408V14.8916V14.9094V23.777C35.605 24.0126 35.5114 24.2386 35.3448 24.4053C35.1782 24.5719 34.9522 24.6655 34.7165 24.6655C34.4809 24.6655 34.2549 24.5719 34.0882 24.4053C33.9216 24.2386 33.828 24.0126 33.828 23.777V15.7802H32.9394ZM33.828 7.10809C33.3109 7.29362 32.8632 7.63338 32.5454 8.08148C32.2276 8.52958 32.055 9.06442 32.0509 9.61376V13.1679C32.0555 13.4021 32.1505 13.6255 32.3162 13.7912C32.4818 13.9568 32.7052 14.0519 32.9394 14.0564H33.828V7.10809ZM24.9426 15.5186C23.7579 14.7699 23.1656 12.5384 23.1656 10.449C23.1656 7.88998 24.0008 5.11775 25.8312 5.11775C27.6615 5.11775 28.4968 7.87221 28.4968 10.449C28.4968 12.5643 27.9339 14.7993 26.7197 15.532V23.777C26.7197 24.0126 26.6261 24.2386 26.4595 24.4053C26.2928 24.5719 26.0668 24.6655 25.8312 24.6655C25.5955 24.6655 25.3695 24.5719 25.2029 24.4053C25.0362 24.2386 24.9426 24.0126 24.9426 23.777V15.5186ZM24.9959 10.449C24.9032 9.21808 25.1886 7.98851 25.8135 6.92464C26.5633 7.93705 26.9062 9.19476 26.773 10.449C26.8689 11.6916 26.5771 12.9333 25.9378 14.0031C25.1849 12.9805 24.8482 11.7102 24.9959 10.449Z" fill="#0B3B2C"/>
</svg>
