<svg width="49" height="37" viewBox="0 0 49 37" fill="none" xmlns="http://www.w3.org/2000/svg">
<path d="M47.959 18.4196C45.755 17.343 43.3111 16.8266 40.8512 16.9178C41.1462 13.8734 40.5533 10.8094 39.1417 8.08344L39.0517 7.77423H38.6019C36.525 7.87506 34.4901 8.38584 32.6188 9.27607C30.9022 5.59822 28.1761 2.46262 24.7462 0.220859L24.3413 0L23.9815 0.220859C20.5403 2.45008 17.8111 5.58923 16.1089 9.27607C14.2376 8.38584 12.2027 7.87506 10.1258 7.77423H9.63093L9.36102 8.17178C7.99424 10.9126 7.40378 13.9641 7.65155 17.0061C5.2519 16.9425 2.87301 17.4582 0.723718 18.508L0.363831 18.6405V19.1264C0.609591 21.8229 1.49424 24.4255 2.9471 26.7265C4.39996 29.0274 6.38075 30.9627 8.73122 32.3779C10.8488 33.8709 13.3686 34.7161 15.974 34.8074C16.7971 34.727 17.602 34.5182 18.3582 34.189C20.08 35.369 22.1291 36.0018 24.2289 36.0018C26.3286 36.0018 28.3778 35.369 30.0995 34.189C30.8958 34.4566 31.7322 34.591 32.5738 34.5865C35.1917 34.4884 37.7239 33.6443 39.8615 32.1571C42.1843 30.7692 44.1459 28.869 45.5905 26.6071C47.0351 24.3452 47.9231 21.7839 48.1839 19.1264V18.6405L47.959 18.4196ZM38.197 9.27607C39.2955 11.6854 39.7299 14.3359 39.4566 16.962C38.005 17.112 36.573 17.4081 35.1829 17.8454C34.8522 15.3554 34.1866 12.9194 33.2036 10.6012C34.7756 9.87425 36.466 9.42564 38.197 9.27607ZM24.3413 1.76687C28.1596 4.69054 31.039 8.63274 32.6346 13.1216C34.2303 17.6104 34.4747 22.4556 33.3385 27.0773C33.0058 28.6406 32.2858 30.0993 31.2422 31.3243C30.1986 32.5493 28.8637 33.5028 27.3554 34.1006C29.1611 30.6248 29.955 26.7272 29.6497 22.8368H28.0302C28.5172 26.7189 27.5932 30.6452 25.421 33.9239C25.3014 34.097 25.1405 34.2387 24.9523 34.3367C24.7641 34.4346 24.5543 34.4858 24.3413 34.4858C24.1283 34.4858 23.9186 34.4346 23.7304 34.3367C23.5422 34.2387 23.3812 34.097 23.2617 33.9239C21.1124 30.6366 20.205 26.7133 20.6975 22.8368H19.168C18.8626 26.7272 19.6565 30.6248 21.4622 34.1006C19.9562 33.4924 18.6218 32.5364 17.5723 31.3137C16.5229 30.091 15.7894 28.6378 15.4341 27.0773C14.2994 22.4638 14.5353 17.6276 16.114 13.1417C17.6926 8.65577 20.5479 4.70825 24.3413 1.76687ZM10.5307 9.27607C12.2481 9.4205 13.9247 9.86947 15.4791 10.6012C14.5508 12.8765 13.8868 15.2473 13.4997 17.6687C12.1491 17.2919 10.7619 17.055 9.36102 16.962C9.08206 14.3441 9.48451 11.6995 10.5307 9.27607ZM9.36102 30.9202C7.3403 29.6757 5.62359 28.0094 4.33292 26.0398C3.04226 24.0701 2.20933 21.8454 1.89335 19.5239C5.57943 18.0988 9.67869 18.0988 13.3648 19.5239C13.043 22.1966 13.2106 24.9043 13.8596 27.519C14.4333 29.5623 15.4978 31.4406 16.9636 32.9963C14.2557 33.2451 11.5493 32.5061 9.36102 30.9202ZM39.1867 30.9202C37.0705 32.4441 34.4716 33.1799 31.854 32.9963C33.3199 31.4406 34.3843 29.5623 34.958 27.519C35.6572 24.8379 35.8704 22.0568 35.5878 19.3031C39.258 17.8763 43.344 17.8763 47.0143 19.3031C46.6961 21.6967 45.8256 23.9875 44.4691 26.0007C43.1126 28.014 41.3059 29.6966 39.1867 30.9202Z" fill="#0B3B2C"/>
</svg>
