<svg width="32" height="24" viewBox="0 0 32 24" fill="none" xmlns="http://www.w3.org/2000/svg">
<path d="M31.7893 12.2791C30.3201 11.5614 28.6909 11.2172 27.051 11.278C27.2477 9.24848 26.8524 7.20593 25.9114 5.38869L25.8514 5.18256H25.5515C24.167 5.24977 22.8105 5.59028 21.563 6.18374C20.4187 3.73196 18.6014 1.64166 16.3149 0.147232L16.045 0L15.8051 0.147232C13.5111 1.63331 11.6917 3.72597 10.557 6.18374C9.30947 5.59028 7.95295 5.24977 6.56843 5.18256H6.23855L6.05862 5.44758C5.14748 7.27471 4.75385 9.30892 4.91903 11.3369C3.31934 11.2944 1.73349 11.6382 0.300704 12.338L0.060791 12.4264V12.7503C0.224623 14.5479 0.81436 16.2829 1.78288 17.8167C2.75141 19.3506 4.07187 20.6408 5.63877 21.5842C7.05045 22.5795 8.73022 23.1429 10.467 23.2037C11.0158 23.1501 11.5523 23.011 12.0564 22.7915C13.2042 23.5782 14.5703 24 15.97 24C17.3698 24 18.7358 23.5782 19.8836 22.7915C20.4144 22.9699 20.972 23.0595 21.533 23.0565C23.2782 22.9911 24.9662 22.4284 26.3912 21.437C27.9397 20.5118 29.2474 19.245 30.2104 17.7372C31.1734 16.2293 31.7654 14.5219 31.9392 12.7503V12.4264L31.7893 12.2791ZM25.2816 6.18374C26.014 7.78988 26.3035 9.55678 26.1213 11.3074C25.1537 11.4075 24.199 11.6048 23.2724 11.8963C23.0519 10.2364 22.6082 8.61251 21.9529 7.06713C23.0008 6.58251 24.1277 6.28345 25.2816 6.18374ZM16.045 1.17786C18.5904 3.12687 20.5099 5.75487 21.5736 8.74727C22.6373 11.7397 22.8002 14.9697 22.0428 18.0506C21.821 19.0928 21.341 20.0652 20.6453 20.8818C19.9497 21.6984 19.0597 22.3341 18.0543 22.7326C19.258 20.4155 19.7873 17.8172 19.5837 15.2238H18.5041C18.8288 17.8117 18.2128 20.4291 16.7647 22.6148C16.685 22.7302 16.5778 22.8247 16.4523 22.89C16.3268 22.9553 16.187 22.9894 16.045 22.9894C15.903 22.9894 15.7632 22.9553 15.6377 22.89C15.5122 22.8247 15.405 22.7302 15.3253 22.6148C13.8924 20.4233 13.2876 17.8079 13.6159 15.2238H12.5962C12.3927 17.8172 12.9219 20.4155 14.1257 22.7326C13.1217 22.3272 12.2321 21.6899 11.5326 20.8748C10.833 20.0597 10.344 19.0909 10.1071 18.0506C9.35067 14.9751 9.50795 11.7511 10.5603 8.76067C11.6127 5.77022 13.5161 3.13868 16.045 1.17786ZM6.83833 6.18374C7.98327 6.28002 9.10095 6.57932 10.1371 7.06713C9.51831 8.5839 9.07567 10.1644 8.81762 11.7786C7.91722 11.5274 6.99251 11.3694 6.05862 11.3074C5.87265 9.56225 6.14094 7.79929 6.83833 6.18374ZM6.05862 20.6125C4.71154 19.7828 3.56712 18.672 2.70672 17.359C1.84632 16.0459 1.29106 14.5629 1.08042 13.0153C3.53768 12.0652 6.27039 12.0652 8.72765 13.0153C8.51313 14.797 8.62485 16.602 9.05753 18.3451C9.43997 19.7072 10.1496 20.9593 11.1268 21.9964C9.32159 22.1623 7.51741 21.6696 6.05862 20.6125ZM25.9414 20.6125C24.5307 21.6283 22.7982 22.1188 21.0532 21.9964C22.0304 20.9593 22.74 19.7072 23.1224 18.3451C23.5885 16.5577 23.7307 14.7038 23.5423 12.8681C25.989 11.9169 28.7128 11.9169 31.1595 12.8681C30.9474 14.4638 30.3671 15.9909 29.4628 17.333C28.5585 18.6751 27.3541 19.7967 25.9414 20.6125Z" fill="white"/>
</svg>
