<svg width="38" height="33" viewBox="0 0 38 33" fill="none" xmlns="http://www.w3.org/2000/svg">
<g clip-path="url(#clip0_50_44)">
<path d="M35.237 4.33034H25.6237V2.65731C25.6237 1.953 25.3439 1.27754 24.8459 0.779517C24.3479 0.281495 23.6724 0.00170898 22.9681 0.00170898L14.4171 0.00170898C13.7128 0.00170898 13.0373 0.281495 12.5393 0.779517C12.0413 1.27754 11.7615 1.953 11.7615 2.65731V4.43656H3.23701C2.5327 4.43656 1.85724 4.71635 1.35921 5.21437C0.861191 5.71239 0.581406 6.38786 0.581406 7.09217L0.581406 29.6648C0.581406 30.3691 0.861191 31.0446 1.35921 31.5426C1.85724 32.0406 2.5327 32.3204 3.23701 32.3204H35.237C35.9413 32.3204 36.6168 32.0406 37.1148 31.5426C37.6128 31.0446 37.8926 30.3691 37.8926 29.6648V6.87972C37.8652 6.19398 37.5733 5.5455 37.0782 5.07022C36.5831 4.59495 35.9233 4.32979 35.237 4.33034ZM36.1665 6.98594V9.37598L32.8735 5.97681H35.237C35.479 5.97671 35.7115 6.07099 35.885 6.23959C36.0586 6.4082 36.1595 6.63784 36.1665 6.87972V6.98594ZM30.5631 6.08304L36.1665 11.6598V24.9378L30.5631 30.5146H7.80464L2.20132 24.7785V11.5005L7.80464 5.9237H11.6553V10.9162L8.84033 12.3237V22.1229H16.1167V12.3237L13.2752 10.9162V5.97681H30.5631V6.08304ZM12.4785 12.3237L14.4968 13.2797V20.4764H10.4602V13.2797L12.4785 12.3237ZM13.4876 2.65731C13.4726 2.52664 13.4855 2.39426 13.5254 2.26893C13.5653 2.1436 13.6314 2.02817 13.7193 1.93027C13.8071 1.83238 13.9147 1.75424 14.035 1.70104C14.1553 1.64783 14.2856 1.62076 14.4171 1.62163H23.0744C23.2059 1.62076 23.3361 1.64783 23.4564 1.70104C23.5767 1.75424 23.6843 1.83238 23.7722 1.93027C23.86 2.02817 23.9261 2.1436 23.966 2.26893C24.006 2.39426 24.0188 2.52664 24.0038 2.65731V4.43656H13.3814L13.4876 2.65731ZM3.23701 5.97681H5.60049L2.20132 9.26976V6.87972C2.20417 6.75043 2.23396 6.62316 2.28879 6.50604C2.34363 6.38892 2.4223 6.28454 2.51978 6.19956C2.61725 6.11458 2.73139 6.05087 2.85489 6.01252C2.97839 5.97416 3.10854 5.962 3.23701 5.97681ZM2.20132 29.4523V27.0888L5.49427 30.3552H3.23701C3.10854 30.37 2.97839 30.3579 2.85489 30.3195C2.73139 30.2812 2.61725 30.2175 2.51978 30.1325C2.4223 30.0475 2.34363 29.9431 2.28879 29.826C2.23396 29.7089 2.20417 29.5816 2.20132 29.4523ZM35.237 30.3552H32.8735L36.1665 27.0888V29.4523C36.1595 29.6942 36.0586 29.9239 35.885 30.0925C35.7115 30.2611 35.479 30.3553 35.237 30.3552Z" fill="#0B3B2C"/>
</g>
<defs>
<clipPath id="clip0_50_44">
<rect width="37.205" height="32" fill="white" transform="translate(0.581406 0.00170898)"/>
</clipPath>
</defs>
</svg>
