<svg width="20" height="24" viewBox="0 0 20 24" fill="none" xmlns="http://www.w3.org/2000/svg">
<g clip-path="url(#clip0_49_130)">
<path d="M19.0975 11.94C19.083 11.8413 19.0332 11.7512 18.9574 11.6864C18.8815 11.6216 18.7848 11.5864 18.685 11.5875H14.935V9.45749C14.9222 9.35942 14.8739 9.26942 14.7993 9.20449C14.7247 9.13955 14.6289 9.10416 14.53 9.10499H1.24752C1.14947 9.12096 1.06025 9.17116 0.995717 9.24668C0.931181 9.3222 0.895502 9.41816 0.89502 9.51749L0.89502 20.445C0.945026 21.4054 1.36208 22.3098 2.06 22.9715C2.75791 23.6331 3.68334 24.0013 4.64502 24H10.735C11.6948 23.9726 12.6255 23.6649 13.4125 23.115C13.885 22.7999 14.2734 22.3743 14.544 21.875C14.8145 21.3757 14.9591 20.8179 14.965 20.25V19.8375H18.715C18.8144 19.8231 18.9054 19.7736 18.9715 19.698C19.0375 19.6223 19.0743 19.5254 19.075 19.425V11.925L19.0975 11.94ZM7.36002 15.165V17.5425H4.98252V15.165H7.36002ZM14.11 10.3425V20.25V20.4075C14.0704 20.814 13.9409 21.2067 13.7307 21.5569C13.5206 21.9072 13.2351 22.2063 12.895 22.4325C12.1769 22.9288 11.3229 23.1908 10.45 23.1825H4.45002H4.30752C3.58767 23.1057 2.92271 22.762 2.44374 22.2192C1.96477 21.6764 1.70656 20.9738 1.72002 20.25V9.92999H5.70252V14.25H4.05252V18.4875H8.29002V14.25H6.64002V9.92999H14.14L14.11 10.3425ZM18.2425 12.825V19.035H14.965V12.4125H18.2725L18.2425 12.825Z" fill="#0B3B2C"/>
<path d="M4.55501 5.76C4.88447 4.96723 5.29942 4.21277 5.79251 3.51L5.98751 3.2025C6.68747 2.24911 7.17586 1.15728 7.42001 0L6.57251 0C6.29154 1.08529 5.79969 2.10467 5.12501 3L4.92251 3.315C4.43188 4.03828 4.02668 4.81597 3.71501 5.6325C3.51644 6.218 3.40525 6.82957 3.38501 7.4475H4.21751C4.23764 6.87041 4.35163 6.30044 4.55501 5.76Z" fill="#0B3B2C"/>
<path d="M13.6451 5.0775L13.9301 4.62L14.2526 4.1175L14.5601 3.63C15.3 2.55918 15.7213 1.30052 15.7751 0L14.9501 0C14.9266 0.567659 14.81 1.12761 14.6051 1.6575C14.2766 2.44928 13.8642 3.20358 13.3751 3.9075L13.2026 4.17L12.9026 4.6575C12.334 5.50046 11.9412 6.44935 11.7476 7.4475H12.5951C12.7959 6.5995 13.1519 5.79598 13.6451 5.0775Z" fill="#0B3B2C"/>
<path d="M9.48252 5.0775L9.76752 4.62L10.09 4.1175L10.3975 3.63C11.1445 2.56058 11.5759 1.30276 11.6425 0H10.81C10.7865 0.567659 10.67 1.12761 10.465 1.6575C10.1398 2.45083 9.72726 3.20548 9.23502 3.9075L9.07002 4.17L8.76252 4.6575C8.20723 5.50343 7.82724 6.45214 7.64502 7.4475H8.49252C8.6723 6.60282 9.00804 5.79908 9.48252 5.0775Z" fill="#0B3B2C"/>
</g>
<defs>
<clipPath id="clip0_49_130">
<rect width="18.21" height="24" fill="white" transform="translate(0.89502)"/>
</clipPath>
</defs>
</svg>
