<svg width="24" height="18" viewBox="0 0 24 18" fill="none" xmlns="http://www.w3.org/2000/svg">
<path d="M22.3165 0.0269165H1.68346C1.23698 0.0269165 0.808787 0.20428 0.493078 0.519988C0.17737 0.835697 6.47016e-06 1.26389 6.47016e-06 1.71037V11.7032C-0.0010464 12.0812 0.126428 12.4484 0.361517 12.7445C0.385193 12.8058 0.422033 12.861 0.469431 12.9064C0.512596 12.9501 0.563926 12.985 0.62051 13.0089C0.924462 13.2581 1.30666 13.3919 1.69965 13.3866H11.4119V16.3003C11.4093 16.3109 11.4093 16.322 11.4119 16.3327H8.33094C8.20358 16.3327 8.08143 16.3833 7.99138 16.4733C7.90132 16.5634 7.85072 16.6855 7.85072 16.8129C7.85072 16.9402 7.90132 17.0624 7.99138 17.1524C8.08143 17.2425 8.20358 17.2931 8.33094 17.2931H15.6475C15.7748 17.2931 15.897 17.2425 15.987 17.1524C16.0771 17.0624 16.1277 16.9402 16.1277 16.8129C16.1277 16.6855 16.0771 16.5634 15.987 16.4733C15.897 16.3833 15.7748 16.3327 15.6475 16.3327H12.3561C12.3561 16.3327 12.3561 16.3327 12.3561 16.3003V13.3866H22.3165C22.763 13.3866 23.1912 13.2093 23.5069 12.8936C23.8226 12.5778 24 12.1497 24 11.7032V1.71037C24 1.26389 23.8226 0.835697 23.5069 0.519988C23.1912 0.20428 22.763 0.0269165 22.3165 0.0269165ZM0.960438 11.7302V8.49274C1.00443 8.46618 1.0444 8.43348 1.07914 8.39562L8.49281 0.992744H11.7302L0.960438 11.7302ZM1.68346 0.987348H7.1331L0.960438 7.16001V1.71037C0.96185 1.51905 1.03848 1.33596 1.17377 1.20068C1.30905 1.06539 1.49214 0.98876 1.68346 0.987348ZM23.0396 11.7032C23.0403 11.7988 23.0221 11.8937 22.9862 11.9823C22.9502 12.071 22.8972 12.1517 22.83 12.2198C22.7629 12.288 22.683 12.3422 22.5949 12.3795C22.5068 12.4167 22.4122 12.4363 22.3165 12.437H1.61871L12.9496 1.10605C12.988 1.06693 13.0191 1.02124 13.0414 0.971161H22.3165C22.4127 0.971862 22.5077 0.99158 22.5962 1.02918C22.6846 1.06677 22.7648 1.12151 22.832 1.19022C22.8992 1.25894 22.9521 1.34028 22.9878 1.42955C23.0234 1.51882 23.041 1.61426 23.0396 1.71037V11.7032Z" fill="#0B3B2C"/>
</svg>
