<?xml version="1.0" encoding="utf-8"?>
<!-- Generator: Adobe Illustrator 26.3.1, SVG Export Plug-In . SVG Version: 6.00 Build 0)  -->
<svg version="1.1" id="Calque_1" xmlns="http://www.w3.org/2000/svg" xmlns:xlink="http://www.w3.org/1999/xlink" x="0px" y="0px"
	 viewBox="0 0 25 24" style="enable-background:new 0 0 25 24;" xml:space="preserve">
<style type="text/css">
	.st0{fill:#B48752;}
</style>
<path class="st0" d="M12.1,0C9.7,0,7.4,0.7,5.4,2C3.5,3.3,1.9,5.2,1,7.4C0.1,9.6-0.1,12,0.3,14.3s1.6,4.5,3.3,6.1s3.8,2.8,6.1,3.3
	c2.3,0.5,4.7,0.2,6.9-0.7c2.2-0.9,4.1-2.4,5.4-4.4c1.3-2,2-4.3,2-6.7c0-1.6-0.3-3.1-0.9-4.6c-0.6-1.5-1.5-2.8-2.6-3.9
	c-1.1-1.1-2.4-2-3.9-2.6C15.2,0.3,13.7,0,12.1,0z M17.7,9.1c0,0.1,0,0.2,0,0.4c0,1.5-0.4,2.9-1.2,4.2c-0.8,1.3-1.8,2.3-3.1,3
	c-1.3,0.7-2.8,1.1-4.2,1c-1.5-0.1-2.9-0.5-4.2-1.3c0.2,0,0.5,0,0.7,0c1.3,0,2.6-0.4,3.6-1.2c-0.6,0-1.2-0.2-1.7-0.6
	c-0.5-0.4-0.8-0.9-1-1.4c0.4,0.1,0.9,0.1,1.3-0.1c-0.7-0.1-1.2-0.5-1.7-1c-0.4-0.5-0.7-1.2-0.7-1.8c0,0,0,0,0,0
	c0.4,0.2,0.9,0.3,1.3,0.4c-0.4-0.3-0.7-0.6-0.9-1C5.8,9.2,5.6,8.8,5.6,8.3c0-0.5,0.1-1,0.4-1.5C6.8,7.7,7.7,8.4,8.7,9
	c1,0.5,2.2,0.8,3.3,0.9c0-0.2-0.1-0.4-0.1-0.7c0-0.6,0.2-1.1,0.5-1.6c0.3-0.5,0.8-0.8,1.3-1.1c0.5-0.2,1.1-0.3,1.7-0.1
	c0.6,0.1,1.1,0.4,1.5,0.8c0.6-0.1,1.3-0.4,1.8-0.7c-0.2,0.7-0.7,1.2-1.3,1.6c0.6-0.1,1.1-0.2,1.7-0.5C18.8,8.2,18.3,8.7,17.7,9.1z"
	/>
</svg>
