<svg width="25" height="24" viewBox="0 0 25 24" fill="none" xmlns="http://www.w3.org/2000/svg">
<path d="M12.0997 0C9.72633 0 7.40625 0.703788 5.43286 2.02236C3.45947 3.34094 1.9214 5.21509 1.01315 7.4078C0.104897 9.60051 -0.132739 12.0133 0.330284 14.3411C0.793307 16.6689 1.9362 18.8071 3.61443 20.4853C5.29266 22.1635 7.43085 23.3064 9.75862 23.7694C12.0864 24.2324 14.4992 23.9948 16.6919 23.0866C18.8846 22.1783 20.7588 20.6402 22.0773 18.6668C23.3959 16.6935 24.0997 14.3734 24.0997 12C24.0997 10.4241 23.7893 8.86371 23.1863 7.4078C22.5832 5.95189 21.6993 4.62902 20.585 3.51472C19.4707 2.40042 18.1478 1.5165 16.6919 0.913446C15.236 0.310389 13.6756 0 12.0997 0ZM17.7046 9.127C17.7046 9.25118 17.7046 9.37535 17.7046 9.49953C17.7046 10.9761 17.3074 12.4254 16.5545 13.6956C15.8017 14.9658 14.721 16.01 13.4257 16.7188C12.1304 17.4276 10.6683 17.7749 9.19267 17.7243C7.71701 17.6736 6.28216 17.2268 5.03856 16.4309C5.26706 16.4582 5.49704 16.4714 5.72718 16.4704C7.03339 16.4762 8.30366 16.0428 9.33395 15.2399C8.73044 15.2271 8.14586 15.0268 7.66138 14.6667C7.17689 14.3067 6.81652 13.8047 6.63028 13.2305C7.06503 13.3125 7.51269 13.2951 7.93978 13.1797C7.28668 13.0485 6.69876 12.6962 6.27515 12.1821C5.85153 11.668 5.61813 11.0236 5.61429 10.3575C5.61165 10.3463 5.61165 10.3347 5.61429 10.3236C6.01646 10.545 6.46501 10.6687 6.92379 10.6849C6.52713 10.4204 6.20205 10.062 5.97751 9.64146C5.75297 9.22094 5.63595 8.75141 5.63686 8.27469C5.63494 7.76507 5.76941 7.26421 6.02633 6.82408C6.75226 7.71757 7.65816 8.44822 8.6851 8.9685C9.71204 9.48877 10.837 9.78702 11.9868 9.84384C11.9389 9.62695 11.9143 9.40556 11.9134 9.18344C11.9147 8.60352 12.0901 8.03734 12.4169 7.55824C12.7436 7.07914 13.2067 6.70921 13.7462 6.49635C14.2856 6.28349 14.8766 6.23751 15.4425 6.36438C16.0083 6.49125 16.5231 6.78511 16.92 7.2079C17.5675 7.08004 18.1881 6.84135 18.7545 6.50235C18.5402 7.17338 18.0887 7.74329 17.4845 8.10536C18.0576 8.03783 18.6171 7.88368 19.1439 7.64817C18.7565 8.22323 18.269 8.72411 17.7046 9.127Z" fill="white"/>
</svg>
