<svg width="24" height="25" viewBox="0 0 24 25" fill="none" xmlns="http://www.w3.org/2000/svg">
<path fill-rule="evenodd" clip-rule="evenodd" d="M23.5125 0.0271845H0.47273C0.36134 0.0271845 0.254513 0.0714338 0.175748 0.150198C0.0969837 0.228963 0.0527344 0.33579 0.0527344 0.44718V21.2519C0.0527344 21.3633 0.0969837 21.4702 0.175748 21.5489C0.254513 21.6277 0.36134 21.6719 0.47273 21.6719H3.3827V23.6069C3.3827 23.6621 3.39356 23.7167 3.41467 23.7676C3.43577 23.8186 3.46671 23.8649 3.50571 23.9039C3.54471 23.9429 3.59101 23.9738 3.64197 23.9949C3.69292 24.0161 3.74754 24.0269 3.80269 24.0269H7.08016C7.19155 24.0269 7.29837 23.9827 7.37714 23.9039C7.4559 23.8251 7.50015 23.7183 7.50015 23.6069V21.6719H16.5V23.6069C16.5 23.7183 16.5443 23.8251 16.6231 23.9039C16.7018 23.9827 16.8087 24.0269 16.92 24.0269H20.1975C20.3089 24.0269 20.4157 23.9827 20.4945 23.9039C20.5733 23.8251 20.6175 23.7183 20.6175 23.6069V21.6719H23.5275C23.6389 21.6719 23.7457 21.6277 23.8245 21.5489C23.9032 21.4702 23.9475 21.3633 23.9475 21.2519V0.44718C23.9475 0.39074 23.9362 0.334872 23.9141 0.282913C23.8921 0.230954 23.8598 0.183969 23.8192 0.144767C23.7786 0.105564 23.7305 0.0749468 23.6778 0.0547444C23.6251 0.034542 23.5689 0.0251687 23.5125 0.0271845ZM6.66016 23.1869H4.22269V21.6869H6.66016V23.1869ZM19.7625 23.1869H17.3025V21.6869H19.74L19.7625 23.1869ZM2.8427 2.67465H21.1425V19.107H2.8427V2.67465ZM2.01021 13.7295H0.892725V7.9771H2.01021V13.7295ZM23.0925 20.832H0.892725V14.5695H2.01021V19.527C2.01021 19.6384 2.05446 19.7452 2.13323 19.8239C2.21199 19.9027 2.31882 19.947 2.43021 19.947H21.555C21.6664 19.947 21.7732 19.9027 21.852 19.8239C21.9307 19.7452 21.975 19.6384 21.975 19.527V2.27716C21.975 2.16577 21.9307 2.05894 21.852 1.98018C21.7732 1.90141 21.6664 1.85716 21.555 1.85716H2.43021C2.31882 1.85716 2.21199 1.90141 2.13323 1.98018C2.05446 2.05894 2.01021 2.16577 2.01021 2.27716V7.1371H0.892725V0.867175H23.0925V20.832ZM16.0275 6.88213V6.84463H15.99C14.9331 5.80127 13.5077 5.21625 12.0225 5.21625C10.5374 5.21625 9.11201 5.80127 8.05509 6.84463H8.01759V6.88213C6.97423 7.93905 6.38921 9.36443 6.38921 10.8496C6.38921 12.3347 6.97423 13.7601 8.01759 14.817V14.8545H8.05509C9.11201 15.8979 10.5374 16.4829 12.0225 16.4829C13.5077 16.4829 14.9331 15.8979 15.99 14.8545H16.0275V14.817C17.0709 13.7601 17.6559 12.3347 17.6559 10.8496C17.6559 9.36443 17.0709 7.93905 16.0275 6.88213ZM15.9525 11.2771H16.8C16.7126 12.2635 16.3223 13.1987 15.6825 13.9545L15.09 13.3621C15.01 13.2833 14.9023 13.2391 14.79 13.2391C14.6778 13.2391 14.57 13.2833 14.49 13.3621C14.4135 13.4417 14.3707 13.5478 14.3707 13.6583C14.3707 13.7688 14.4135 13.8749 14.49 13.9545L15.09 14.547C14.3342 15.1868 13.3989 15.5771 12.4125 15.6645V14.8095C12.4125 14.6981 12.3683 14.5913 12.2895 14.5126C12.2108 14.4338 12.1039 14.3895 11.9925 14.3895C11.8812 14.3895 11.7743 14.4338 11.6956 14.5126C11.6168 14.5913 11.5725 14.6981 11.5725 14.8095V15.657C10.5862 15.5696 9.65093 15.1793 8.89508 14.5395L9.48757 13.947C9.55725 13.8668 9.59392 13.7631 9.59018 13.6569C9.58644 13.5507 9.54258 13.4498 9.46743 13.3747C9.39228 13.2995 9.29143 13.2557 9.18522 13.2519C9.07901 13.2482 8.97533 13.2849 8.89508 13.3546L8.30259 13.947C7.66424 13.1932 7.27399 12.2609 7.1851 11.2771H8.03259C8.14398 11.2771 8.25081 11.2328 8.32957 11.1541C8.40833 11.0753 8.45258 10.9685 8.45258 10.8571C8.45258 10.7457 8.40833 10.6389 8.32957 10.5601C8.25081 10.4813 8.14398 10.4371 8.03259 10.4371H7.1851C7.27098 9.44807 7.6614 8.51001 8.30259 7.75212L8.89508 8.35211C8.97715 8.42727 9.08381 8.46993 9.19508 8.47211C9.28523 8.47954 9.37537 8.45767 9.45209 8.40975C9.52881 8.36182 9.588 8.29041 9.62087 8.20614C9.65374 8.12186 9.65852 8.02923 9.6345 7.94202C9.61048 7.85481 9.55895 7.77768 9.48757 7.72212L8.89508 7.12962C9.6528 6.49528 10.5878 6.11026 11.5725 6.02714V6.88963C11.5725 7.00102 11.6168 7.10784 11.6956 7.18661C11.7743 7.26537 11.8812 7.30962 11.9925 7.30962C12.1039 7.30962 12.2108 7.26537 12.2895 7.18661C12.3683 7.10784 12.4125 7.00102 12.4125 6.88963V6.02714C13.3989 6.11453 14.3342 6.50486 15.09 7.14462L14.49 7.73712C14.4146 7.81884 14.3728 7.92594 14.3728 8.03712C14.3728 8.14829 14.4146 8.25539 14.49 8.33711C14.5709 8.41414 14.6783 8.45711 14.79 8.45711C14.9017 8.45711 15.0091 8.41414 15.09 8.33711L15.6825 7.73712C16.3223 8.49297 16.7126 9.42819 16.8 10.4146H15.9525C15.8411 10.4146 15.7343 10.4588 15.6555 10.5376C15.5768 10.6164 15.5325 10.7232 15.5325 10.8346C15.5325 10.946 15.5768 11.0528 15.6555 11.1316C15.7343 11.2103 15.8411 11.2546 15.9525 11.2546V11.2771ZM10.826 9.10351C11.1713 8.87276 11.5774 8.7496 11.9927 8.7496C12.549 8.75157 13.082 8.97346 13.4754 9.36685C13.8688 9.76024 14.0907 10.2932 14.0927 10.8496C14.0927 11.2649 13.9695 11.6709 13.7388 12.0163C13.508 12.3616 13.18 12.6308 12.7963 12.7897C12.4126 12.9486 11.9904 12.9902 11.583 12.9092C11.1756 12.8282 10.8015 12.6282 10.5078 12.3345C10.2141 12.0408 10.0141 11.6666 9.93306 11.2593C9.85203 10.8519 9.89362 10.4297 10.0526 10.0459C10.2115 9.66223 10.4807 9.33426 10.826 9.10351ZM11.2927 11.8972C11.4999 12.0357 11.7435 12.1096 11.9927 12.1096C12.3269 12.1096 12.6473 11.9768 12.8836 11.7405C13.1199 11.5042 13.2527 11.1837 13.2527 10.8496C13.2527 10.6004 13.1788 10.3568 13.0403 10.1496C12.9019 9.94236 12.7051 9.78086 12.4749 9.6855C12.2446 9.59013 11.9913 9.56518 11.7469 9.6138C11.5025 9.66242 11.278 9.78242 11.1017 9.95863C10.9255 10.1348 10.8055 10.3593 10.7569 10.6038C10.7083 10.8482 10.7332 11.1015 10.8286 11.3317C10.924 11.562 11.0855 11.7588 11.2927 11.8972Z" fill="#0B3B2C"/>
</svg>
