<svg width="24" height="20" viewBox="0 0 24 20" fill="none" xmlns="http://www.w3.org/2000/svg">
<path fill-rule="evenodd" clip-rule="evenodd" d="M22.9841 5.89637C23.0678 5.93146 23.1579 5.94902 23.2489 5.94794C23.349 5.95713 23.4499 5.94352 23.5438 5.90818C23.6376 5.87284 23.7218 5.81672 23.7898 5.74422C23.8562 5.68325 23.9091 5.60961 23.9452 5.52786C23.9813 5.4461 24 5.35795 24 5.26887C24 5.17978 23.9813 5.09163 23.9452 5.00987C23.9091 4.92812 23.8562 4.85448 23.7898 4.79352C22.2435 3.27413 20.4061 2.06859 18.3829 1.24601C16.3597 0.42343 14.1906 0 12 0C9.80935 0 7.64025 0.42343 5.61709 1.24601C3.59392 2.06859 1.75649 3.27413 0.210162 4.79352C0.143819 4.85448 0.0909421 4.92812 0.0547955 5.00987C0.0186489 5.09163 0 5.17978 0 5.26887C0 5.35795 0.0186489 5.4461 0.0547955 5.52786C0.0909421 5.60961 0.143819 5.68325 0.210162 5.74422C0.272427 5.80918 0.347628 5.86095 0.431125 5.89635C0.514622 5.93174 0.604641 5.95 0.695626 5.95C0.786611 5.95 0.876631 5.93174 0.960127 5.89635C1.04362 5.86095 1.11883 5.80918 1.18109 5.74422C2.59797 4.3562 4.28025 3.25514 6.13184 2.50391C7.98342 1.75269 9.96802 1.36604 11.9723 1.36604C13.9765 1.36604 15.9611 1.75269 17.8127 2.50391C19.6643 3.25514 21.3466 4.3562 22.7634 5.74422C22.8254 5.80946 22.9005 5.86129 22.9841 5.89637ZM20.0436 8.77563C20.1272 8.81072 20.2174 8.82828 20.3083 8.8272C20.4016 8.83021 20.4944 8.81359 20.5806 8.77844C20.6667 8.7433 20.7442 8.69045 20.8076 8.62348C20.874 8.56251 20.9269 8.48887 20.963 8.40711C20.9992 8.32536 21.0178 8.23721 21.0178 8.14812C21.0178 8.05904 20.9992 7.97089 20.963 7.88913C20.9269 7.80738 20.874 7.73374 20.8076 7.67277C18.4682 5.39204 15.3013 4.11158 11.9999 4.11158C8.69863 4.11158 5.53173 5.39204 3.19224 7.67277C3.12849 7.7352 3.07792 7.80931 3.04341 7.89087C3.00891 7.97243 2.99115 8.05984 2.99115 8.14812C2.99115 8.23641 3.00891 8.32382 3.04341 8.40538C3.07792 8.48694 3.12849 8.56105 3.19224 8.62348C3.25599 8.6859 3.33167 8.73542 3.41497 8.7692C3.49827 8.80298 3.58754 8.82037 3.6777 8.82037C3.76786 8.82037 3.85714 8.80298 3.94043 8.7692C4.02373 8.73542 4.09941 8.6859 4.16317 8.62348C6.24278 6.5957 9.05813 5.45721 11.993 5.45721C14.9279 5.45721 17.7432 6.5957 19.8228 8.62348C19.8848 8.68872 19.96 8.74055 20.0436 8.77563ZM17.3679 11.7063C17.2769 11.7074 17.1868 11.6898 17.1031 11.6547C17.0195 11.6196 16.9444 11.5678 16.8824 11.5026C16.2382 10.8702 15.4729 10.3684 14.6303 10.0261C13.7878 9.68377 12.8845 9.50755 11.9723 9.50755C11.0601 9.50755 10.1568 9.68377 9.31427 10.0261C8.47171 10.3684 7.70641 10.8702 7.06219 11.5026C6.93344 11.6286 6.75881 11.6995 6.57672 11.6995C6.39464 11.6995 6.22001 11.6286 6.09126 11.5026C5.96251 11.3765 5.89017 11.2055 5.89017 11.0272C5.89017 10.8489 5.96251 10.6779 6.09126 10.5519C7.65168 9.02586 9.76691 8.16872 11.9723 8.16872C14.1777 8.16872 16.2929 9.02586 17.8534 10.5519C17.9197 10.6128 17.9726 10.6865 18.0087 10.7682C18.0449 10.85 18.0635 10.9381 18.0635 11.0272C18.0635 11.1163 18.0449 11.2045 18.0087 11.2862C17.9726 11.368 17.9197 11.4416 17.8534 11.5026C17.7914 11.5678 17.7162 11.6196 17.6326 11.6547C17.549 11.6898 17.4589 11.7074 17.3679 11.7063ZM10.4311 18.5692C10.8873 18.8676 11.4236 19.0269 11.9723 19.0269C12.708 19.0269 13.4136 18.7408 13.9338 18.2314C14.4541 17.722 14.7463 17.0311 14.7463 16.3107C14.7463 15.7734 14.5836 15.2483 14.2788 14.8016C13.974 14.3549 13.5407 14.0067 13.0338 13.8011C12.5269 13.5955 11.9692 13.5418 11.4311 13.6466C10.8929 13.7514 10.3986 14.0101 10.0107 14.3899C9.62272 14.7698 9.35851 15.2538 9.25148 15.7807C9.14444 16.3076 9.19937 16.8538 9.40934 17.3501C9.6193 17.8465 9.97486 18.2707 10.4311 18.5692ZM11.2017 15.1814C11.4298 15.0322 11.6979 14.9525 11.9723 14.9525C12.3401 14.9525 12.6929 15.0956 12.953 15.3503C13.2132 15.605 13.3593 15.9505 13.3593 16.3107C13.3593 16.5793 13.2779 16.8419 13.1255 17.0652C12.9731 17.2885 12.7565 17.4626 12.5031 17.5654C12.2496 17.6682 11.9707 17.6951 11.7017 17.6427C11.4326 17.5903 11.1854 17.4609 10.9915 17.271C10.7975 17.0811 10.6654 16.8391 10.6119 16.5756C10.5583 16.3122 10.5858 16.0391 10.6908 15.7909C10.7958 15.5427 10.9736 15.3306 11.2017 15.1814Z" fill="#0B3B2C"/>
</svg>
