<svg width="41" height="33" viewBox="0 0 41 33" fill="none" xmlns="http://www.w3.org/2000/svg">
<path fill-rule="evenodd" clip-rule="evenodd" d="M38.6553 9.91838C38.796 9.97739 38.9476 10.0069 39.1006 10.0051C39.269 10.0206 39.4387 9.99767 39.5965 9.93823C39.7543 9.8788 39.896 9.78442 40.0104 9.66248C40.122 9.55995 40.2109 9.4361 40.2717 9.2986C40.3325 9.1611 40.3638 9.01286 40.3638 8.86302C40.3638 8.71319 40.3325 8.56495 40.2717 8.42745C40.2109 8.28995 40.122 8.16611 40.0104 8.06357C37.4097 5.50823 34.3195 3.48072 30.9169 2.09728C27.5143 0.713845 23.8662 0.00170898 20.1819 0.00170898C16.4976 0.00170898 12.8496 0.713845 9.44697 2.09728C6.04435 3.48072 2.95411 5.50823 0.353457 8.06357C0.241879 8.16611 0.152949 8.28995 0.0921565 8.42745C0.0313643 8.56495 0 8.71319 0 8.86302C0 9.01286 0.0313643 9.1611 0.0921565 9.2986C0.152949 9.4361 0.241879 9.55995 0.353457 9.66248C0.458174 9.77173 0.584651 9.85881 0.725078 9.91834C0.865505 9.97786 1.0169 10.0086 1.16992 10.0086C1.32294 10.0086 1.47434 9.97786 1.61477 9.91834C1.75519 9.85881 1.88167 9.77173 1.98639 9.66248C4.36933 7.32809 7.19864 5.47628 10.3127 4.21286C13.4267 2.94943 16.7645 2.29914 20.1353 2.29914C23.506 2.29914 26.8438 2.94943 29.9578 4.21286C33.0719 5.47628 35.9012 7.32809 38.2841 9.66248C38.3883 9.77221 38.5147 9.85938 38.6553 9.91838ZM33.7099 14.7608C33.8505 14.8198 34.0022 14.8493 34.1552 14.8475C34.312 14.8526 34.4682 14.8246 34.6131 14.7655C34.758 14.7064 34.8882 14.6175 34.995 14.5049C35.1065 14.4024 35.1955 14.2785 35.2563 14.141C35.3171 14.0035 35.3484 13.8553 35.3484 13.7054C35.3484 13.5556 35.3171 13.4074 35.2563 13.2699C35.1955 13.1324 35.1065 13.0085 34.995 12.906C31.0603 9.07018 25.7342 6.91666 20.1819 6.91666C14.6297 6.91666 9.30353 9.07018 5.36891 12.906C5.26169 13.011 5.17664 13.1356 5.11862 13.2728C5.06059 13.4099 5.03072 13.557 5.03072 13.7054C5.03072 13.8539 5.06059 14.0009 5.11862 14.1381C5.17664 14.2753 5.26169 14.3999 5.36891 14.5049C5.47613 14.6099 5.60342 14.6932 5.74351 14.75C5.8836 14.8068 6.03375 14.836 6.18538 14.836C6.33701 14.836 6.48716 14.8068 6.62725 14.75C6.76734 14.6932 6.89463 14.6099 7.00185 14.5049C10.4994 11.0945 15.2343 9.17979 20.1703 9.17979C25.1062 9.17979 29.8412 11.0945 33.3387 14.5049C33.4429 14.6146 33.5693 14.7018 33.7099 14.7608ZM29.2097 19.6896C29.0567 19.6915 28.9051 19.6619 28.7645 19.6029C28.6238 19.5439 28.4974 19.4567 28.3932 19.347C27.3098 18.2834 26.0227 17.4396 24.6056 16.8639C23.1886 16.2881 21.6695 15.9917 20.1353 15.9917C18.6011 15.9917 17.082 16.2881 15.6649 16.8639C14.2479 17.4396 12.9608 18.2834 11.8773 19.347C11.6608 19.559 11.3671 19.6782 11.0608 19.6782C10.7546 19.6782 10.4609 19.559 10.2444 19.347C10.0278 19.135 9.90619 18.8474 9.90619 18.5476C9.90619 18.2477 10.0278 17.9601 10.2444 17.7481C12.8687 15.1816 16.4262 13.74 20.1353 13.74C23.8444 13.74 27.4018 15.1816 30.0262 17.7481C30.1378 17.8506 30.2267 17.9745 30.2875 18.112C30.3483 18.2495 30.3796 18.3977 30.3796 18.5476C30.3796 18.6974 30.3483 18.8456 30.2875 18.9831C30.2267 19.1206 30.1378 19.2445 30.0262 19.347C29.922 19.4567 29.7956 19.5439 29.655 19.6029C29.5144 19.6619 29.3627 19.6915 29.2097 19.6896ZM17.5433 31.2318C18.3105 31.7338 19.2125 32.0017 20.1353 32.0017C21.3727 32.0017 22.5594 31.5204 23.4343 30.6637C24.3093 29.8069 24.8008 28.645 24.8008 27.4334C24.8008 26.5299 24.5272 25.6466 24.0145 24.8954C23.5019 24.1441 22.7732 23.5586 21.9207 23.2128C21.0682 22.867 20.1301 22.7766 19.2251 22.9528C18.3201 23.1291 17.4888 23.5642 16.8363 24.2031C16.1838 24.842 15.7394 25.656 15.5594 26.5421C15.3794 27.4283 15.4718 28.3469 15.8249 29.1816C16.178 30.0164 16.776 30.7298 17.5433 31.2318ZM18.8393 25.5342C19.2229 25.2832 19.6739 25.1492 20.1353 25.1492C20.754 25.1492 21.3473 25.3899 21.7848 25.8182C22.2223 26.2466 22.4681 26.8276 22.4681 27.4334C22.4681 27.8851 22.3312 28.3268 22.0749 28.7024C21.8186 29.078 21.4543 29.3708 21.028 29.5437C20.6017 29.7166 20.1327 29.7618 19.6802 29.6737C19.2277 29.5855 18.812 29.368 18.4858 29.0485C18.1595 28.7291 17.9374 28.3221 17.8474 27.879C17.7573 27.4359 17.8035 26.9766 17.9801 26.5593C18.1567 26.1419 18.4557 25.7852 18.8393 25.5342Z" fill="#0B3B2C"/>
</svg>
